<mxfile modified="2020-06-07T18:29:45.899Z" host="app.diagrams.net" agent="5.0 (Macintosh; Intel Mac OS X 10_14_0) AppleWebKit/537.36 (KHTML, like Gecko) Chrome/81.0.4044.138 Safari/537.36" etag="UZfzB8Ip_w4YuE3DqJMn" version="13.1.14" type="github">
  <diagram id="d1ab7348-05c3-a1e3-ca4d-12c340fd6b49" name="Page-1">
    <mxGraphModel dx="946" dy="1441" grid="1" gridSize="10" guides="1" tooltips="1" connect="1" arrows="1" fold="1" page="1" pageScale="1" pageWidth="1169" pageHeight="827" background="#ffffff" math="0" shadow="0">
      <root>
        <mxCell id="0" />
        <mxCell id="1" parent="0" />
        <mxCell id="2" value="&lt;b&gt;Google &lt;/b&gt;Cloud Platform" style="fillColor=#F6F6F6;strokeColor=none;shadow=0;gradientColor=none;fontSize=14;align=left;spacing=10;fontColor=#717171;9E9E9E;verticalAlign=top;spacingTop=-4;fontStyle=0;spacingLeft=40;html=1;" parent="1" vertex="1">
          <mxGeometry x="225.5" y="-10" width="758" height="679.7145161290322" as="geometry" />
        </mxCell>
        <mxCell id="3" value="" style="shape=mxgraph.gcp2.google_cloud_platform;fillColor=#F6F6F6;strokeColor=none;shadow=0;gradientColor=none;" parent="2" vertex="1">
          <mxGeometry width="23" height="20" relative="1" as="geometry">
            <mxPoint x="20" y="10" as="offset" />
          </mxGeometry>
        </mxCell>
        <mxCell id="xwxbCeUritOEieoB_8Dk-436" value="Reports and Dashboards &#xa;Data Studio   " style="strokeColor=#dddddd;shadow=1;strokeWidth=1;rounded=1;absoluteArcSize=1;arcSize=2;align=right;fontColor=#808080;" parent="2" vertex="1">
          <mxGeometry x="480" y="575.2212389380531" width="202.91" height="57.52212389380532" as="geometry" />
        </mxCell>
        <mxCell id="xwxbCeUritOEieoB_8Dk-438" value="" style="shape=image;imageAspect=0;aspect=fixed;verticalLabelPosition=bottom;verticalAlign=top;image=data:image/png,iVBORw0KGgoAAAANSUhEUgAAAGQAAABjCAYAAABt56XsAAAYVGlDQ1BJQ0MgUHJvZmlsZQAAWIWVeQVUVF8X77mTzDAM3d0l3SAxdHeDwABDd4dKioSKIKCUCioIIliEiIUgooigAgYiYVAqqKAIyLuEfv/v/6313npnrXPvb/bZZ8fZp/ZcADhTyRERIQg6AELDYqJsjXT5nF1c+bDvAAQQgBEwAwLZJzqCZG1tDuDy5/3fZXkY5obLM6lNWf/b/n8t9L6UaB8AIGsYe/tG+4TC+BoAqEyfiKgYADCqMF0wPiZiE7vDmCkKNhDGEZvYfxtnbmLvbXxii8feVg/GDQBQEcjkKH8AiG0wnS/Oxx+WQ3wBtzGE+QaGwazzMNbyCSD7AsC5C+bZFRoavomdYSzm/Q85/v8l0/uvTDLZ/y/e9mWrUOkHRkeEkBP/P4fj/11CQ2L/6BCBKyEgyth202d43F4Eh5ttYgKM58O8La1gzADjn4G+W/wwRuADYo0dtvkRXD7RevCYARYYy/qS9c1gzAVjw7AQS/MdurdfoKEJjOEZgkgIjDGx3+mbTYk2sNuRWREVbmv1B/tF6ZF2+jaSo7b0bvJ3xQY7kHbkvwigmPyR/z0pwN5p22YkPi7Q0RLGRBizRAfbmW3zIIWSAvQs//BExdpu2i8EY3VKmJHutnykh1+Uoe0Of1Ro9B9/kdkBgSaWO7gsJsDeeEdOgw95y342GLdRwkgOf+RQop3N//jiS9E32PYdOUAJc9jxFzkeEaNru9P3a0SI9Q4/Ck8JMdqkC8CYKzrObqcvSisGnpDb8lGWETHW9tt2oryDyKbW2/agEoA50AP6gA/EwtUbhIMgENg/3zoP/9puMQRkEAX8AQVI7VD+9HDaagmDn3YgCXyCEQVE/+2nu9VKAXEwff0vdfspBfy2WuO2egSDDzAOBWYgBP4du9Ur7K82R/AOpgT+j3Yf2NYQuG62/S+NBFPMdyixf+Ty0f7hxBhg9DHGGEOMOIoDpYXSQJnDTx24yqNUUWp/rP0PP/oDehA9iR5Cj6NfegamR/3LHz5gAcZhDYY7Pnv/02eUCCxVCaWL0oTlw7JRLCgOIIVShDWRUNqwbiWYqrdj+ab3/5b9Xz78Y9R3+HCyOASOFaeDE/t3T6IEUemvlM0x/ecIbdvq/Xdc9f62/Fu/3j9G2hd+m/2bE5mNvIrsQd5F9iI7kK2AD3kb2YbsQ97cxH9n0butWfRHm+2WPcGwnMD/0Ufe0bk5ktGyF2RnZNe222IoCTGbC0wvPCIxKtA/IIaPBO/8FD6TMB/pXXzysvKyAGyeI9vb1DfbrfMBYnnyHxplGoDd8NrADfyHFnQMgPpuAFhz/0MTcQOAHd6XLz/1iY2K26ahNh9ogAe08IpiBzxAEIjB/sgDZaABdIABMAVWwB64AA94lAPg+RwF4sFekAayQB44CopBGTgFzoDz4CK4AlpBB7gL7oNHYAAMgdfw7HkP5sACWAarEARhIRqIEWKHeCFhSBKSh1QhLcgAModsIRfIC/KHwqBYaC+UAeVBhVAZVAXVQZeh69BdqBcahF5CE9AM9BX6hUAiCAgmBDdCBCGDUEWQEGYIe8QehD8iEpGEyEQcQZxAVCMaEC2Iu4hHiCHEOGIOsYQESGokC5IfKYVUReohrZCuSD9kFHI/MhdZgqxGNiLb4Tg/Q44j55ErKAyKEcWHkoJnsDHKAeWDikTtRx1ClaHOo1pQXahnqAnUAuo3mgbNhZZEq6NN0M5of3Q8Ogtdgq5BN6O74dX0Hr2MwWBYMKIYFXg1umCCMMmYQ5hKTBPmDmYQM4VZwmKx7FhJrCbWCkvGxmCzsKXYBuxt7FPse+xPKmoqXip5KkMqV6owqnSqEqp6qltUT6k+Uq3i6HDCOHWcFc4Xl4jLx53FteOe4N7jVvH0eFG8Jt4eH4RPw5/AN+K78aP4b9TU1ALUatQ21IHUqdQnqC9RP6CeoF4hMBAkCHoEd0Is4QihlnCH8JLwjYaGRoRGh8aVJobmCE0dzT2aMZqfREaiNNGE6EtMIZYTW4hPiZ9pcbTCtCRaD9ok2hLaq7RPaOfpcHQidHp0ZLr9dOV01+lG6JboGenl6K3oQ+kP0dfT99JPM2AZRBgMGHwZMhnOMNxjmGJEMgoy6jH6MGYwnmXsZnzPhGESZTJhCmLKY7rI1M+0wMzArMjsyJzAXM58k3mcBckiwmLCEsKSz3KFZZjlFys3K4mVwprD2sj6lPUHGyebDhuFLZetiW2I7Rc7H7sBezB7AXsr+xsOFIcEhw1HPMdJjm6OeU4mTg1OH85cziucr7gQXBJctlzJXGe4+riWuHm4jbgjuEu573HP87Dw6PAE8RTx3OKZ4WXk1eIN5C3ivc07y8fMR+IL4TvB18W3wM/Fb8wfy1/F38+/KiAq4CCQLtAk8EYQL6gq6CdYJNgpuCDEK2QhtFfogtArYZywqnCA8HHhHuEfIqIiTiIHRVpFpkXZRE1Ek0QviI6K0Yhpi0WKVYs9F8eIq4oHi1eKD0ggJJQkAiTKJZ5IIiSVJQMlKyUHd6F3qe0K21W9a0SKIEWSipO6IDUhzSJtLp0u3Sr9WUZIxlWmQKZH5reskmyI7FnZ13IMcqZy6XLtcl/lJeR95MvlnyvQKBgqpCi0KSwqSipSFE8qvlBiVLJQOqjUqbSurKIcpdyoPKMipOKlUqEyosqkaq16SPWBGlpNVy1FrUNtRV1ZPUb9ivoXDSmNYI16jendorspu8/untIU0CRrVmmOa/FpeWmd1hrX5tcma1drT+oI6vjq1Oh8JImTgkgNpM+6srpRus26P/TU9fbp3dFH6hvp5+r3GzAYOBiUGYwZChj6G14wXDBSMko2umOMNjYzLjAeMeE28TGpM1kwVTHdZ9plRjCzMyszmzSXMI8yb7dAWJhaHLMYtRS2DLNstQJWJlbHrN5Yi1pHWt+wwdhY25TbfLCVs91r22PHaOdpV2+3bK9rn2//2kHMIdah05HW0d2xzvGHk75TodO4s4zzPudHLhwugS5trlhXR9ca1yU3A7dit/fuSu5Z7sN7RPck7On14PAI8bjpSetJ9rzqhfZy8qr3WiNbkavJS94m3hXeCz56Psd95nx1fIt8ZyialELKRz9Nv0K/aX9N/2P+MwHaASUB84F6gWWBi0HGQaeCfgRbBdcGb4Q4hTSFUoV6hV4PYwgLDusK5wlPCB+MkIzIihiPVI8sjlyIMouqiYai90S3xTDBF/a+WLHYA7ETcVpx5XE/4x3jrybQJ4Ql9CVKJOYkfkwyTDqXjEr2Se7cy783be/EPtK+qv3Qfu/9nSmCKZkp71ONUs+n4dOC0x6ny6YXpn/PcMpoz+TOTM2cOmB04EIWMSsqa+SgxsFT2ajswOz+HIWc0pzfub65D/Nk80ry1g75HHp4WO7wicMbR/yO9Ocr5588ijkadnS4QLvgfCF9YVLh1DGLYy1FfEW5Rd+LPYt7SxRLTh3HH489Pn7C/ERbqVDp0dK1soCyoXLd8qYKroqcih+VvpVPT+qcbDzFfSrv1K/TgadfVBlVtVSLVJecwZyJO/PhrOPZnnOq5+pqOGryatZrw2rHz9ue76pTqaur56rPv4C4EHthpsG9YeCi/sW2RqnGqiaWprxL4FLspdnLXpeHr5hd6byqerXxmvC1imbG5twWqCWxZaE1oHW8zaVt8Lrp9c52jfbmG9I3ajv4O8pvMt/Mv4W/lXlr43bS7aU7EXfm7/rfner07Hx9z/ne8y6brv5us+4H9w3v3+sh9dx+oPmgo1e99/pD1Yetj5QftfQp9TU/Vnrc3K/c3/JE5UnbgNpA++DuwVtPtZ/efab/7P5zk+ePhiyHBocdhl+MuI+Mv/B9Mf0y5OXiq7hXq69TR9GjuW/o3pSMcY1VvxV/2zSuPH5zQn+ib9Ju8vWUz9Tcu+h3a+8zP9B8KPnI+7FuWn66Y8ZwZmDWbfb9XMTc6nzWJ/pPFZ/FPl/7ovOlb8F54f1i1OLG10Pf2L/Vflf83rlkvTS2HLq8+iP3J/vP8yuqKz2/nH59XI1fw66dWBdfb/9t9nt0I3RjI4IcRd66CiDhivDzA+BrLQA0LgAwDgCAd9vO83YKEr58IOC3I2SAICFVUWxoPIYKK0vlgsvA3yZgaMjEVjo8fQjDQyYl5gpWwBbM3s+pzHWUe45Xhy+ff1AQL6Qm7CISLBoq5i6uK8EtsSh5f1epVLC0pgyNzFvZJrlUeRsFfoVPiteVDijbqHCpvFdtVEtQJ2ngNZ7trtD01dql9VW7VWcvSVeXoPtW75Z+vUGlYYHRfmOyibYpm+miWZ95o0WlZZVVh/WULdqO3Z7Dgc4R6bjmtOoCXHFuRHeaPag9Sx6TngNed8hXvWt8Sn1zKYl+/v72AbqBikESwfwh7KG0Yciw7+GTEQORN6LORh+JSYnNimtOQCVSku7sBftE9qunmKS6pcWmH8kozkw+oHhgKiv/oHW2cA51LshDHKI/LHZEK9/yqFOBa6HrMecix2L7EpvjlifMSo3KdMu1KtQqFU5KnZI4LVtlVp1xZvycSU1D7Vwdfb3wBbkGjYv6jRZNTpc8Lwdcibgaf21/c3rLgdbstrzr+e3FNyo6am5eu9V9e+TO+N3hzqZ7fl1sXQ+6S+7H9/g92NPr9NDmkVmf0WPjfvsnkQOnB18+o34uM6Q3bDJi8EL1pfAr4quV19OjL97cHTvzNmPcf8Jh0nLK4p3Ve6sPph/Vplmnx2dyZxVnx+fOzyd9Mv5M9bnui9GXqYUziwlfPb5ZfbdYClru/HnwV+u6/sbGTvzlkCjkDGocPYVZoELilPEB1BWEcaIEbTzdfQZ2xkSm5yzyrOlsbziUOLO4Bng4eJ35Cvg7BEYFl4SWhWdFHoueEYsS15KgkngueWpXkJSS1G/p+zJHZJ3keOU+yjcqxClqKkFK3cq5KlaqjKrDaqXqbhrcGqPwLHDXYtca0T6u40YSIa3qDuld1j9kQDHcbURv9MG4w6TYNM6MYu5tEWAZbhVq7W1jZathJ2HP6UB0RDguO310Hna559roVu6euyfJI9DT2UufLOPN5gP5zPoOUbr8mv1rAkoCM4PCg11CdEJFw2jgmTARMRb5PZo/xjO2NO5u/IuEqcT5pJW91Pt49oul8KViUt+mNafnZ0RlehxwyHI+GJidkVOZezGv+VDL4WtHLudfPFpXcK7w9LHyouLi/JKc4+knEkvDy/zLAytSK2+fEj99vlr0TOHZZ+dWaonnOeoE6yXgeaByUatRv8niksvlkCtZV89cu9U82DLWOt32rR15g7VD8qbGLZ3bKnf47yLuTnb23Gvuqu0uv3+058CDpN6ohzGPcvo6+lme7Bt485TjmfZz+yG/4dSRcy+evPz+mmFU6o35WMTb4+M3Jp5Ojk1Nvpv7gIajnzYzOEc/L/tJ6bPIF9ovPxc+LI58ffjt+veqpZRlxx+iP5Z/dqwk/dJYJazpr8/sxF8amkNUIj1Q4mgsehEzg52lmsQtUuMJwjQkoittGl0D/SDDBpMwswFLEOsBtlPs1zi6OR9w3ee+wVPFm8Cny/eL/6yAmcCcYLaQqFCnsIfwikiRqKzoQzF/cax4rYSxxEfJrF1iu7qlfKSBdKXMbpkXsrHw7aZJ3lx+WiFDkUexTclWaV75gAqvSit8a5lWS1FnUb+gQdJ4uttn92fNZC2sVrm2ovawThKJh9Sma6X7Ui9Ab0O/2sDaEGd4z2ivsaLxrEm1qbsZm9mwebGFnSWtZa9VhrWG9XebJttgO1G7d/ZVDnsc2R2fO+U7GztvuDS7hrgJub1xL9ljuWfZo8hT2POaF8nrFTnBW8D7BbyPBFCM/FT81QJMAslBocHkEO1QutDRsHPhoRFKEWuR96Jyo61jmGNex56K840Xif+QcDLRIHE0KSSZKfnZ3hv7bu3vSrmXej2tLr0kIyMz/IBblsFBiWx09vOc0lzXPKG81UPjhx8fuZ5/+uj+ArdC9WMcx1aKhouvlBw/fvhEYWlV2dXy+xUvKmdPrp6mqeKrVjhjfNb9XHjN/tqc84fqUuvJF1QaiA1fL35qXLlEuMxzRf6q9bXk5mstP9vUrke0l9641NF288at3ttLd406r3fZdS/1lPQqPHzed7jfa8DkKem57nDIS+Lo3GT/7NL3lc34b//ft1kwygAcS4Mz1CwAHLQBKOiC88whOO/EA2BNA4C9GkCI+AEEoQ9A6hN/zw8IPm0wgBrQAzbAC0SBLFCHs2Qr4Ar8QDScXeaDk6AR3AJPwAT4DmeOXJAcZAR5QvFQAdQAPYA+IDAIMYQ5IhpRCed5G3BeF4e8jvyNMkIdQ02iFdDZ6LcYdUwpZhXOsB5SqVDV4jhxBXhqfA41nvoogYNQS6NI00HUJLbTqtLeoDOme00fw0DHcJFRn3GQyZ5pkNmK+SmLJ8tP1lI2TbYx9n0cnBztnB5cOK4O7jgeRZ5vvFf4oviV+NcEegRLhAKEd4sQRcZFr4pli3tLkCRFdhF3rUp9ln4nMyTbLJcsLyc/ppCtqKT4RalNuVAlUdVXzVxdVoN1N1FTWqtcR5J0WLdX74sBlSGzEbsxl4mQqaKZpXmkxQnLLquvNoK2TnZH7HscUU76zlkufW4s7t576j3eeWHI9N4Y7yWf976jlFl/2gCzwOKgjyG7Q4vCPkeYRtZHE2IiY1/FGya0JUkl1+zj21+eypJWkIHPTDuwdDAoey4371DokeYC+mMcRZ9K6k54lrGUD1QePmV0eqk6/yzTueya5fPBdV8vHL1o0ER/afHKh2vTLXNtH9unOhZvs97Vu+fR7dVj16v9SOax+BPlwbBnP0dQr3Cjp94yTtx6T5zeO0f61PRl9avyd8Nl/I/DPx+uTP96v/py7dr60d/eG7Jb+8dm/LGAABgAO+AHEkABaAJjYA+8QChIBjmgFNSB6+AReAMWIDTEAcluRT8RKoIuQf3QJwQtQgHhishAXEG8R/IiPZFnkfMoZVQmaggtjk5Dj8KxL8cCbAB2iMqAqg0ng6vHi+MbqBWpbxOsCVM0CUQcsZiWn/YSnL++po9nYGFoZXRk/MS0jxnPfIJFiuUhazgbK9sd9kAOJo47nOFcQlyj3KU8zrxsvC/5Kvl9BWQFgeBzoQvCmSLuoopwLjcr3idxFT7F8qUypPfKxMj6yOnIE+T7FXIVzZRYlRaVX6r0qLaoVasf0kjaHaeZo9Wm/YOkoOurl6dfY9BieMPohvFNk17TCXOEhYSlo9UB61abeTshe0+HSscxZwGXINcWd+weJ48yz26vQXKnd51Ptm8gxdbP2N8lID3wTjBNiHdoRzhHRFLkm2jdmLo42viIhEdJ/Mlxewf2K6WcTeNML8rEH0jOms8m50zmJR2WzUccfVN4uSiuRPH419LL5bGV6id/na6plj9TefZjjWhtwPlL9awXKi5qNn66VHpF7Wp/M7llta263aYD3Ky7bX5nsfNUl/d99Qf8D1GPHj+Oe4IZyH1KeFY95Dli8TLkde2bj+O8k9bv0j7cmmGdO/pZZOHxt6LlQysmq/JrJ9ff/V7ciT8K4AAdvPr5gSRQBnrAGnjAsd8Hr/wqcA08AGPwuidAIpAOtAdKhsqhm9AEAgdHnYwoRgwgmZEU5E0UFyoVNYt2QT/G6GFuYjWxd6nMqd7govG0+EvUjgQkoZUmkihH/EnbTVdKH8vgwmjCZMpsw2LKqsImzq7E4cmZyBXD7c1jz2vJZ8FvIWAuaCFkK+wpEi16WKxe/IHEzC4aKRVpP5ky2WF5DgVfxSalVRVr1cfqObtdtNDaR3XWdM30MuAIthp2GN0y7jdZNTMzb7GUtmqwkbZtsddzGHYKdcG7Nrg7etB7UXt7+rpR3vlrBOQFfgi2DekLswh/GukWNR2THMcTP5Z4P/nOvsoUh9Rf6VWZjlm8BxdybuYdOuyXb1TAXvioyK94+XhGKX1ZdYVy5eNTflVQdcVZ1XNDtbF1nPUPGlIajS7JXDG8ltJS3Zbf7tLBenPkdvldl3vYrnP3FXtu9Bo8HOlL6JcZQA4uPJseGhwpeCn6qvL17zcGY7lvH03QTjpMnX4380HuY/D06ZkHs7Pz6E9cn2W/6C84LZK/+n6z/i7wfWnp8DLXcv0PtR9lP1Z+Ov1sWWFZiVppWVn9pfMr81fvKnHVbvX46sAa1ZrOWsLa5bWZdf51l/XC9Yfr67/lfvv+Pv770e/fG3IblI0TG32b8Y/2U5DfOj4ggi4A6LGNjW8iAGALAVgv2NhYrd7YWD8DJxujANwJ2f6GtHXW0AFQsbCJHrX9Sv33t5z/A3xU2cXAb6+/AAABnGlUWHRYTUw6Y29tLmFkb2JlLnhtcAAAAAAAPHg6eG1wbWV0YSB4bWxuczp4PSJhZG9iZTpuczptZXRhLyIgeDp4bXB0az0iWE1QIENvcmUgNS40LjAiPgogICA8cmRmOlJERiB4bWxuczpyZGY9Imh0dHA6Ly93d3cudzMub3JnLzE5OTkvMDIvMjItcmRmLXN5bnRheC1ucyMiPgogICAgICA8cmRmOkRlc2NyaXB0aW9uIHJkZjphYm91dD0iIgogICAgICAgICAgICB4bWxuczpleGlmPSJodHRwOi8vbnMuYWRvYmUuY29tL2V4aWYvMS4wLyI+CiAgICAgICAgIDxleGlmOlBpeGVsWERpbWVuc2lvbj4xMDA8L2V4aWY6UGl4ZWxYRGltZW5zaW9uPgogICAgICAgICA8ZXhpZjpQaXhlbFlEaW1lbnNpb24+OTk8L2V4aWY6UGl4ZWxZRGltZW5zaW9uPgogICAgICA8L3JkZjpEZXNjcmlwdGlvbj4KICAgPC9yZGY6UkRGPgo8L3g6eG1wbWV0YT4KPfTx7wAAEN1JREFUeAHtXWlzFNcVvd2zSQIJLCFAEgIJxG4WG4MdL+UqV1H5Ev+G/Lh8TFU+pCqpyodU7NhJDBgvgEAS2tAKWtAujWbpzjmvaWtB09PL69GImlclZumet9zz7rvn3XtfY9goUitVIwGzanpS64iSQA2QKpsINUBqgFSZBKqsOzUNqQFSZRKosu7UNKQGSJVJoMq6U9OQKgMkuR/9oWvAskSK+Ks2P4GJKZrAn2nsh2REKg5IviCytinyetWWpVWRfHF/Bl6q1YaMSHOjyJEGQ+rSDjil7o3j+4oBQk3YyImMvrLlyQtbhl7asrhmKC2JY2Bh60wnbTlxVOTSKUOunjbw3pBUxaRUQQ1Zh1b8PGzJd70iT8dsmVu2pEDt2KeloRRg9LXWpU15Om7I2KwtX14T6TpuSLpCoFSkmRyWqV9GLPn7QweM9awlFlVG/ZUSzX59b0g2Z8nwS1EanM3Z8ofbppwGKLQtcZfYAaHMOdO+eeyAsbZRBA4069VaOFE4V4ryesWU75+Z0nrEliOHDGVb4u517JivZUXu9VvybFyEmlHdYOwUtw0quLBiy3+e0uZZQk2Pu8QKiIWZ1j9pwXaAVa0UnWUq7hFprt+yLRmdseXBAO2erVZZzU3sqC5WQBZAbe/12zI2I1IoqHVgR+MH4gOW1828yINBkb4JG/YF44ixxAYIGdTjUVt6sVQtr78x4jEOJM6qLSxdLxdEfuizZXrBhqbH11osgLC/7Di1Y2rexl4jxhHEJ5ttNdug6JY8wgR7NGLL6kZ844kFkE1sAB8OWtI3iV15lutufAPYJrVY39qYVAsrIv/rI2t03D5xNKgdEMp+dMYCIIbMLb0bYDiC51Jly8A0JtsQwIF9jGOaaQdkZUPk/oDI8CuBMXyXAOHexJI1LFdcigcBDP1yuotWQOjB7Z+wsCuneh9MmltOwKTB3Og+GLBkVq0A5X4R7LpWQOaxiboH7RjHGps/qDS3nPywbOWg+T8O2tjs2sphWu4nQa5rA4RudDKQ3jHQ3I2DtSMPIjDea8HAzyzRwINFvtZLg7UAgkmj6O3956C77GAxDnMXVGxx3g8ajBWAYQROwpV1fePVAgh3rw+hwv2Ttqxvvtva4cJMKr+wRi2x5AVsigoluBcjvEYGhHs+BpseDskbX4++2RJhXBX4KRgkBj84bajJqGiwhqFHdr+vrJPm2ip+kMtH0w4ufVoKgl5u3EtV6VXvtnuDtq1oMLzZ9wcMudhhSVNDQjKpoLXsvD8SIExSeDpGlwKDOfRX7azc7ycC4SYXGK4k/f54j/vYDVJw7twYVPKqk21zHGELN4vjc4aalJ2ttpxqMTzbK9dOJEDIw++Bj4/PhffmUiCN9SLHEbtubjQkmYiOCDekQ9NFJFAY0n3SRP0QUglJ0P6RKc3DtR4KGAyANPinIUMud9rSfNiQQ3UlGvPxdWhAuEv9dYRc3ICzLdxSxZmcTIh8dTOhkgramgEIrVop6fkYEG9ZWLXkT/8sgP2Ychd1n2szS87aHFzrvdDyfzwsgikqpfLZytZtpMGzS4byBp89YaM9Q2n81h3+34UChLN6fA67VdDcl3RHh1yruKw0QzO+vmPK8SOGNNSVnsn+hyTYI9hSn8pLFuCebk1j5gIQjwo6sMyMzxYgVAvuHoLndfdeFZFlgQaPMXfAllaM6eihve4r/x3nY+CyvkkwijIwxZ1qOO1gowSWOVDtzabUp/WAoeoF0KSlRQu7Vbg6ypUW9KGzxZK0mcfkKn//XvXRwC/Dj/cD/FxMdQqbbxYYECrD4LSNsKyBsCydh3t1z993/GlKg80o3ZpfjyzSfFK2GHZOioVNYAggQxQLRkhtARB6CCubwIAsrdmKUYzCm5uLoB3ueKMA6tah59UAKQNTtDbhaQgHCrVyHfEfbgMGsElm6DdoCQQIWUgv3AVPXogQmJCmI2gfK3s/hGpZudCg0J5Ovnb2ZrRlQSdcIEBeMSwL9GnQGdIMx0kqK98wrdEehAfFocG/DNPRaqs85iB98A0Ic5KYCvps4t0Jy3oJKgoo1JK5Zfi5nkFb5qxA+xtfgFDtXiAs+yNSYaiGYWmulwCq8Vp4UBwazMn7MzSFy7vf4gsQZh8+eO6ELbOgvO9C0oJfAYUFhb9bhlueNHiENNhnuLcsIKTlA1OW/DqM7ENkrB8E7eB8dI1p0C3eXkCFBYV7mtEZQ0UXGU11+7RXG+53ZQGhW5k0jumUDsr+1c9tpNKvzAMrYudMvxidljpKGFC4kmxgRfkRqwtjRX5osGd3SaSevLAUzaX6qSMEOkYXcx0ryAxZgyAOwRWTTmr0AIRgX0UIcXrBULnBfmiwJyCLMEakb/SG0ldzEGguezk1V4Rj0YIHOQFQPIcYeGoE1xTSYCz5I85mMYskQq/i2dshuEiGXxpq93lQDDnd6f0TeeUSP3syKY04K6i7BAWFdnceWY9cuphB71U8ARlGaHYGHtCDkpuLcWMCFZDknZOjhxPS056SQxn9gFCgwUBxVhieIpuNAsgq6O5ByT4kg2Ec5N+PsliyCnKzJ41jaEnfAS/+3nvuvj2vg4BCxsXDP5GWrAYcC06nwsQH3u58nN9QM2gzvnuclf/2ZqWtOSGfXslIS5PnArCjS4z6keIHLX5BYYylHvJkQM6reAaouk4YOF9nyCKor2PUvaoKeS3CisJZnQfZWFix4KbYlL/dXxcb9d291YAIZEoxLL+9YlxHuedC9McFhW2ZkhHDfFvqSQT3L3SIvIcQr1fxBKQHociu45ZMIIi/ugH3NCUQQ6FQWUyfM5QawTyoDeSAjc4U5X7/pvqjrfv9rXr5DNrR2BBAO9D+EjSM/fAWV+nBe4FC7WCc/fYFRkZL18ErnoC0NBlyo8uQQRwRHgXbUvm63vUFusrHVzB+0DeWf5Md4g9wPoBgdqmIpOeCDE4W5OXrojRjefrqRr18/n6dHDuSCPRojGVkzMwtAhCf7o1SgywFShKJAufbRd4/Y8hhJFx4FU9AmEJzDYA8xdm6uSVTLV06tYSAzCzaSEggOYc0sPHyUxge5Q54E+mch+tNuXMpLR9fysiV02kcXzYDgcH2puaLYJNFtbsPHE7f1eHdoJjJFOLrhnxy0ZCOlvKP6vAEhG3RhtzuMWQEFHgNWQO5sMHiXR3/7aNSiqRaDh2wvbWEAuMs62xNSscxZJSA2p4Bmzp+1AxkM9z2aTf6J/PyGoCwZe/56/7K+/U3UFBZJpGU613OxC6nHay1LCD0BV3BMz+ud9nyahGnopYNbQ5Gmo4TSP35490MlqwUsj0oEm9A2OkU3CEN2F80wU4w5ypKLtfcclF6R/PKM6sDDPaPhaAIHj5wvCkH7agH84NfzUcDZQFh5U3Y7d6+QFtiI7OCj55QLfJSpEKOQMFePWMi2QFLjX87HKld98fUjl+Hc/KcO3ssf1GXK7devtKQ1yFx4tY5QZqp4P32q6Xf+xIBO0rG9eFZZBgeMTGbfUBdus0dV2Iibjva2OsD252aL6h9y+xiuCyTvep1v0skEtIF182diymQjNKJeu797qsvQHhzHfKmPjrvsAWVQ6VzOrm9qeDrCrItv8VG8vFIXpEDncOhdtBe/O5yWrlv6HH2W3wDwgrbkeH3EQy8SvmMNZ/Kb/fD3UeGdq9vU/71SxY2kYl+4eop9askHrB1qTMlt86DYZXZCO6uIxAgKWxAb5w1lJEn3eRMOEiFgmfW5T1sJP/6wzpCqwVFUHQOw4AhZML1Z1ccX1rQ5T0QIBT+MWwWb19A6uUxPmlNAyAaqvAzKWjA6Xz8Hr6uv3y/Jk9f5CUP/5VOMEia05i1N8+l5Fo3PM0hYjG+WNb2AdOeX8Hj76534/kfi6Z6OECUOLvu5WJ7X/meDsMsBM/NH/1d3z7akJHpgnZWxbYS0A7mKX8K29EOB2cY7hMYEDbMoM+d84Y8n8KJ2zVTPYHNz/6Bv91eODu5hGwg5ZKd10V7CQKdodzJz8NGPINrhv4uxklm4SLhBNKrGQ7NzYD4kFVd7kziJFU41Q8FCJs6exI0+JyF8K6B2YeHWXKXF7AQhBk8ZechMunPwrPc0uQAE7AadTtbJxB0EK7CPzazUFSa0DeRk8Epx99FTWHRDQbrTGBHfq4tARdOGuNIhG4jFCDsgEuDB/CAsoUVA26V4N5gAkIN+fN3AOSkDV9PEe4PCi347KJG0Pu7jASHeey+Z6AJc3CHLMFxuImwLkscQLgVH8YpMMZgzrWlItnW0ICwI+3Ngr0JshpnDZyJMJyHlKke+v+HouLxhgnkC9elCupIAEJF/it4cydtEb3R3HEz2ET3PN30hDY2IN60nULU6eqZlHzQk1LunMCd3/aDSIDwbMfNbhNPWsNshI9raTW4lri6sJGjliWRdU6vKz2/zqze1ld/b1EhAWC9YYyqv0a27iLN5RKlaG5rQoURtq4GfxcJEDbHmMnH8HONIGbSp7zBnN3BhUkh0t1gmhll3K1iznHQBR9TBX9BmmvKhz1JhCnC0dzdnQ28D3mrAgjycicCWd2idqVmxGlpGAAlQVDSmOmRu7e7u1o/m3CIdrQgfn85IydBc3UsjVpGTL8NtYTMK026F7FnCpRkXXWDgjHSp/cJWNVF0Fw1bg1wawEEEKjz4HQ187x5UHfBXuOgdpjJ6tUULq897UmH5jbCjbTXIEJ8pwUQtstHStDxeL5NnBO1EbWEdTqa4oKia8isOVqhD68JqwJ35N0n/Od++WlVGyBsjF7gO1i62uAVTmjyBm8tX0iv0QCyH6F434MIZTIp78OIf4hkPN2pqloBYRLYjW5EADvhXuFDADQJcGv52n9QSHPpYP38alpOIa6vY3nePgG0AsKK+bwSGvhTrdFi3ds7yfdbyxdB0d7t3c2V+GxIBik9jHNwI8jws+6ifWRkvZfhDb7RhSw9GDtTl8cQI1egJFz2pV8Y5YRLmnuqld7cjJx4Tw/N3d2mdkDYwCEYPOYh0WHo0ODdzYb/zCXDVKBUdvni8uvQ3JRcOKWP5u6WRCyA0HR0A4xbPXgQC/K6dK+z+wEKvbkXOpC0gIS8Zo00tyKAsBHGBj7qQYIxUij5XwjpMvDuACoJCm0Wn+n12dWMdprrjsd9jUVD3MpdGtzRgtQhTTTYrZuvDijcp8S5fDFUnUAuQVo+QGi2EbkEcZZYaycNvkkafNpWA9GtJQ4oru8rHlBISvj8K9LcjmNJgB8nHPBQx1s9mZZj4M+o/+mMzelnRzyPoRyScErqBJ1LVQbL7Z2LablyJqmMetzyih0Q0mD+n4CfXkJEEJSR7mpITfu4fgNFy/KF/gGMuoyzI//yGmguTvTG0O235BA5HvJWjXt8wfPiX1w1Vbz7myemTCIGn0W4Vfe5d8PAzpmpSXj4pYqnhIg8MpTD0071dQnknyXl64/r5CJorpaUpz1ks/srA0cAgkeTdtfi4zNb4eMlfhpyngzBE76rKg6vX1uYeV5EgMuykM7i88yJOwSkayhae707LV9cS6ujcdyRV0I72IeKAeIOmBkhr5BpwkfL8skGuYJ+QNgWQbEBiHp1G/fxehjaTFZ4Gn6q1pBnTnw0U/KWigPCnlBb+NwPpuUwdSc2FX2j/EHq53+xyh05z5xUSiu2o7MvgGzvQO39TgnEzrJ2Nlf7VE4CNUDKSajC12uAVFjg5ZqrAVJOQhW+XgOkwgIv11wNkHISqvD1GiAVFni55mqAlJNQha/XAKmwwMs1938Yn4cuV87KHAAAAABJRU5ErkJggg==;" parent="2" vertex="1">
          <mxGeometry x="489.5" y="581.2035398230089" width="40" height="39.6" as="geometry" />
        </mxCell>
        <mxCell id="tV7Hm8Mad4ymsOei4ALO-409" value="" style="shape=image;imageAspect=0;aspect=fixed;verticalLabelPosition=bottom;verticalAlign=top;image=data:image/png,iVBORw0KGgoAAAANSUhEUgAAAIAAAACCCAYAAACO9sDAAAAYVGlDQ1BJQ0MgUHJvZmlsZQAAWIWVeQVUVF8X77mTzDAM3d0l3SAxdHeDwABDd4dKioSKIKCUCioIIliEiIUgooigAgYiYVAqqKAIyLuEfv/v/6313npnrXPvb/bZZ8fZp/ZcADhTyRERIQg6AELDYqJsjXT5nF1c+bDvAAQQgBEwAwLZJzqCZG1tDuDy5/3fZXkY5obLM6lNWf/b/n8t9L6UaB8AIGsYe/tG+4TC+BoAqEyfiKgYADCqMF0wPiZiE7vDmCkKNhDGEZvYfxtnbmLvbXxii8feVg/GDQBQEcjkKH8AiG0wnS/Oxx+WQ3wBtzGE+QaGwazzMNbyCSD7AsC5C+bZFRoavomdYSzm/Q85/v8l0/uvTDLZ/y/e9mWrUOkHRkeEkBP/P4fj/11CQ2L/6BCBKyEgyth202d43F4Eh5ttYgKM58O8La1gzADjn4G+W/wwRuADYo0dtvkRXD7RevCYARYYy/qS9c1gzAVjw7AQS/MdurdfoKEJjOEZgkgIjDGx3+mbTYk2sNuRWREVbmv1B/tF6ZF2+jaSo7b0bvJ3xQY7kHbkvwigmPyR/z0pwN5p22YkPi7Q0RLGRBizRAfbmW3zIIWSAvQs//BExdpu2i8EY3VKmJHutnykh1+Uoe0Of1Ro9B9/kdkBgSaWO7gsJsDeeEdOgw95y342GLdRwkgOf+RQop3N//jiS9E32PYdOUAJc9jxFzkeEaNru9P3a0SI9Q4/Ck8JMdqkC8CYKzrObqcvSisGnpDb8lGWETHW9tt2oryDyKbW2/agEoA50AP6gA/EwtUbhIMgENg/3zoP/9puMQRkEAX8AQVI7VD+9HDaagmDn3YgCXyCEQVE/+2nu9VKAXEwff0vdfspBfy2WuO2egSDDzAOBWYgBP4du9Ur7K82R/AOpgT+j3Yf2NYQuG62/S+NBFPMdyixf+Ty0f7hxBhg9DHGGEOMOIoDpYXSQJnDTx24yqNUUWp/rP0PP/oDehA9iR5Cj6NfegamR/3LHz5gAcZhDYY7Pnv/02eUCCxVCaWL0oTlw7JRLCgOIIVShDWRUNqwbiWYqrdj+ab3/5b9Xz78Y9R3+HCyOASOFaeDE/t3T6IEUemvlM0x/ecIbdvq/Xdc9f62/Fu/3j9G2hd+m/2bE5mNvIrsQd5F9iI7kK2AD3kb2YbsQ97cxH9n0butWfRHm+2WPcGwnMD/0Ufe0bk5ktGyF2RnZNe222IoCTGbC0wvPCIxKtA/IIaPBO/8FD6TMB/pXXzysvKyAGyeI9vb1DfbrfMBYnnyHxplGoDd8NrADfyHFnQMgPpuAFhz/0MTcQOAHd6XLz/1iY2K26ahNh9ogAe08IpiBzxAEIjB/sgDZaABdIABMAVWwB64AA94lAPg+RwF4sFekAayQB44CopBGTgFzoDz4CK4AlpBB7gL7oNHYAAMgdfw7HkP5sACWAarEARhIRqIEWKHeCFhSBKSh1QhLcgAModsIRfIC/KHwqBYaC+UAeVBhVAZVAXVQZeh69BdqBcahF5CE9AM9BX6hUAiCAgmBDdCBCGDUEWQEGYIe8QehD8iEpGEyEQcQZxAVCMaEC2Iu4hHiCHEOGIOsYQESGokC5IfKYVUReohrZCuSD9kFHI/MhdZgqxGNiLb4Tg/Q44j55ErKAyKEcWHkoJnsDHKAeWDikTtRx1ClaHOo1pQXahnqAnUAuo3mgbNhZZEq6NN0M5of3Q8Ogtdgq5BN6O74dX0Hr2MwWBYMKIYFXg1umCCMMmYQ5hKTBPmDmYQM4VZwmKx7FhJrCbWCkvGxmCzsKXYBuxt7FPse+xPKmoqXip5KkMqV6owqnSqEqp6qltUT6k+Uq3i6HDCOHWcFc4Xl4jLx53FteOe4N7jVvH0eFG8Jt4eH4RPw5/AN+K78aP4b9TU1ALUatQ21IHUqdQnqC9RP6CeoF4hMBAkCHoEd0Is4QihlnCH8JLwjYaGRoRGh8aVJobmCE0dzT2aMZqfREaiNNGE6EtMIZYTW4hPiZ9pcbTCtCRaD9ok2hLaq7RPaOfpcHQidHp0ZLr9dOV01+lG6JboGenl6K3oQ+kP0dfT99JPM2AZRBgMGHwZMhnOMNxjmGJEMgoy6jH6MGYwnmXsZnzPhGESZTJhCmLKY7rI1M+0wMzArMjsyJzAXM58k3mcBckiwmLCEsKSz3KFZZjlFys3K4mVwprD2sj6lPUHGyebDhuFLZetiW2I7Rc7H7sBezB7AXsr+xsOFIcEhw1HPMdJjm6OeU4mTg1OH85cziucr7gQXBJctlzJXGe4+riWuHm4jbgjuEu573HP87Dw6PAE8RTx3OKZ4WXk1eIN5C3ivc07y8fMR+IL4TvB18W3wM/Fb8wfy1/F38+/KiAq4CCQLtAk8EYQL6gq6CdYJNgpuCDEK2QhtFfogtArYZywqnCA8HHhHuEfIqIiTiIHRVpFpkXZRE1Ek0QviI6K0Yhpi0WKVYs9F8eIq4oHi1eKD0ggJJQkAiTKJZ5IIiSVJQMlKyUHd6F3qe0K21W9a0SKIEWSipO6IDUhzSJtLp0u3Sr9WUZIxlWmQKZH5reskmyI7FnZ13IMcqZy6XLtcl/lJeR95MvlnyvQKBgqpCi0KSwqSipSFE8qvlBiVLJQOqjUqbSurKIcpdyoPKMipOKlUqEyosqkaq16SPWBGlpNVy1FrUNtRV1ZPUb9ivoXDSmNYI16jendorspu8/untIU0CRrVmmOa/FpeWmd1hrX5tcma1drT+oI6vjq1Oh8JImTgkgNpM+6srpRus26P/TU9fbp3dFH6hvp5+r3GzAYOBiUGYwZChj6G14wXDBSMko2umOMNjYzLjAeMeE28TGpM1kwVTHdZ9plRjCzMyszmzSXMI8yb7dAWJhaHLMYtRS2DLNstQJWJlbHrN5Yi1pHWt+wwdhY25TbfLCVs91r22PHaOdpV2+3bK9rn2//2kHMIdah05HW0d2xzvGHk75TodO4s4zzPudHLhwugS5trlhXR9ca1yU3A7dit/fuSu5Z7sN7RPck7On14PAI8bjpSetJ9rzqhfZy8qr3WiNbkavJS94m3hXeCz56Psd95nx1fIt8ZyialELKRz9Nv0K/aX9N/2P+MwHaASUB84F6gWWBi0HGQaeCfgRbBdcGb4Q4hTSFUoV6hV4PYwgLDusK5wlPCB+MkIzIihiPVI8sjlyIMouqiYai90S3xTDBF/a+WLHYA7ETcVpx5XE/4x3jrybQJ4Ql9CVKJOYkfkwyTDqXjEr2Se7cy783be/EPtK+qv3Qfu/9nSmCKZkp71ONUs+n4dOC0x6ny6YXpn/PcMpoz+TOTM2cOmB04EIWMSsqa+SgxsFT2ajswOz+HIWc0pzfub65D/Nk80ry1g75HHp4WO7wicMbR/yO9Ocr5588ijkadnS4QLvgfCF9YVLh1DGLYy1FfEW5Rd+LPYt7SxRLTh3HH489Pn7C/ERbqVDp0dK1soCyoXLd8qYKroqcih+VvpVPT+qcbDzFfSrv1K/TgadfVBlVtVSLVJecwZyJO/PhrOPZnnOq5+pqOGryatZrw2rHz9ue76pTqaur56rPv4C4EHthpsG9YeCi/sW2RqnGqiaWprxL4FLspdnLXpeHr5hd6byqerXxmvC1imbG5twWqCWxZaE1oHW8zaVt8Lrp9c52jfbmG9I3ajv4O8pvMt/Mv4W/lXlr43bS7aU7EXfm7/rfner07Hx9z/ne8y6brv5us+4H9w3v3+sh9dx+oPmgo1e99/pD1Yetj5QftfQp9TU/Vnrc3K/c3/JE5UnbgNpA++DuwVtPtZ/efab/7P5zk+ePhiyHBocdhl+MuI+Mv/B9Mf0y5OXiq7hXq69TR9GjuW/o3pSMcY1VvxV/2zSuPH5zQn+ib9Ju8vWUz9Tcu+h3a+8zP9B8KPnI+7FuWn66Y8ZwZmDWbfb9XMTc6nzWJ/pPFZ/FPl/7ovOlb8F54f1i1OLG10Pf2L/Vflf83rlkvTS2HLq8+iP3J/vP8yuqKz2/nH59XI1fw66dWBdfb/9t9nt0I3RjI4IcRd66CiDhivDzA+BrLQA0LgAwDgCAd9vO83YKEr58IOC3I2SAICFVUWxoPIYKK0vlgsvA3yZgaMjEVjo8fQjDQyYl5gpWwBbM3s+pzHWUe45Xhy+ff1AQL6Qm7CISLBoq5i6uK8EtsSh5f1epVLC0pgyNzFvZJrlUeRsFfoVPiteVDijbqHCpvFdtVEtQJ2ngNZ7trtD01dql9VW7VWcvSVeXoPtW75Z+vUGlYYHRfmOyibYpm+miWZ95o0WlZZVVh/WULdqO3Z7Dgc4R6bjmtOoCXHFuRHeaPag9Sx6TngNed8hXvWt8Sn1zKYl+/v72AbqBikESwfwh7KG0Yciw7+GTEQORN6LORh+JSYnNimtOQCVSku7sBftE9qunmKS6pcWmH8kozkw+oHhgKiv/oHW2cA51LshDHKI/LHZEK9/yqFOBa6HrMecix2L7EpvjlifMSo3KdMu1KtQqFU5KnZI4LVtlVp1xZvycSU1D7Vwdfb3wBbkGjYv6jRZNTpc8Lwdcibgaf21/c3rLgdbstrzr+e3FNyo6am5eu9V9e+TO+N3hzqZ7fl1sXQ+6S+7H9/g92NPr9NDmkVmf0WPjfvsnkQOnB18+o34uM6Q3bDJi8EL1pfAr4quV19OjL97cHTvzNmPcf8Jh0nLK4p3Ve6sPph/Vplmnx2dyZxVnx+fOzyd9Mv5M9bnui9GXqYUziwlfPb5ZfbdYClru/HnwV+u6/sbGTvzlkCjkDGocPYVZoELilPEB1BWEcaIEbTzdfQZ2xkSm5yzyrOlsbziUOLO4Bng4eJ35Cvg7BEYFl4SWhWdFHoueEYsS15KgkngueWpXkJSS1G/p+zJHZJ3keOU+yjcqxClqKkFK3cq5KlaqjKrDaqXqbhrcGqPwLHDXYtca0T6u40YSIa3qDuld1j9kQDHcbURv9MG4w6TYNM6MYu5tEWAZbhVq7W1jZathJ2HP6UB0RDguO310Hna559roVu6euyfJI9DT2UufLOPN5gP5zPoOUbr8mv1rAkoCM4PCg11CdEJFw2jgmTARMRb5PZo/xjO2NO5u/IuEqcT5pJW91Pt49oul8KViUt+mNafnZ0RlehxwyHI+GJidkVOZezGv+VDL4WtHLudfPFpXcK7w9LHyouLi/JKc4+knEkvDy/zLAytSK2+fEj99vlr0TOHZZ+dWaonnOeoE6yXgeaByUatRv8niksvlkCtZV89cu9U82DLWOt32rR15g7VD8qbGLZ3bKnf47yLuTnb23Gvuqu0uv3+058CDpN6ohzGPcvo6+lme7Bt485TjmfZz+yG/4dSRcy+evPz+mmFU6o35WMTb4+M3Jp5Ojk1Nvpv7gIajnzYzOEc/L/tJ6bPIF9ovPxc+LI58ffjt+veqpZRlxx+iP5Z/dqwk/dJYJazpr8/sxF8amkNUIj1Q4mgsehEzg52lmsQtUuMJwjQkoittGl0D/SDDBpMwswFLEOsBtlPs1zi6OR9w3ee+wVPFm8Cny/eL/6yAmcCcYLaQqFCnsIfwikiRqKzoQzF/cax4rYSxxEfJrF1iu7qlfKSBdKXMbpkXsrHw7aZJ3lx+WiFDkUexTclWaV75gAqvSit8a5lWS1FnUb+gQdJ4uttn92fNZC2sVrm2ovawThKJh9Sma6X7Ui9Ab0O/2sDaEGd4z2ivsaLxrEm1qbsZm9mwebGFnSWtZa9VhrWG9XebJttgO1G7d/ZVDnsc2R2fO+U7GztvuDS7hrgJub1xL9ljuWfZo8hT2POaF8nrFTnBW8D7BbyPBFCM/FT81QJMAslBocHkEO1QutDRsHPhoRFKEWuR96Jyo61jmGNex56K840Xif+QcDLRIHE0KSSZKfnZ3hv7bu3vSrmXej2tLr0kIyMz/IBblsFBiWx09vOc0lzXPKG81UPjhx8fuZ5/+uj+ArdC9WMcx1aKhouvlBw/fvhEYWlV2dXy+xUvKmdPrp6mqeKrVjhjfNb9XHjN/tqc84fqUuvJF1QaiA1fL35qXLlEuMxzRf6q9bXk5mstP9vUrke0l9641NF288at3ttLd406r3fZdS/1lPQqPHzed7jfa8DkKem57nDIS+Lo3GT/7NL3lc34b//ft1kwygAcS4Mz1CwAHLQBKOiC88whOO/EA2BNA4C9GkCI+AEEoQ9A6hN/zw8IPm0wgBrQAzbAC0SBLFCHs2Qr4Ar8QDScXeaDk6AR3AJPwAT4DmeOXJAcZAR5QvFQAdQAPYA+IDAIMYQ5IhpRCed5G3BeF4e8jvyNMkIdQ02iFdDZ6LcYdUwpZhXOsB5SqVDV4jhxBXhqfA41nvoogYNQS6NI00HUJLbTqtLeoDOme00fw0DHcJFRn3GQyZ5pkNmK+SmLJ8tP1lI2TbYx9n0cnBztnB5cOK4O7jgeRZ5vvFf4oviV+NcEegRLhAKEd4sQRcZFr4pli3tLkCRFdhF3rUp9ln4nMyTbLJcsLyc/ppCtqKT4RalNuVAlUdVXzVxdVoN1N1FTWqtcR5J0WLdX74sBlSGzEbsxl4mQqaKZpXmkxQnLLquvNoK2TnZH7HscUU76zlkufW4s7t576j3eeWHI9N4Y7yWf976jlFl/2gCzwOKgjyG7Q4vCPkeYRtZHE2IiY1/FGya0JUkl1+zj21+eypJWkIHPTDuwdDAoey4371DokeYC+mMcRZ9K6k54lrGUD1QePmV0eqk6/yzTueya5fPBdV8vHL1o0ER/afHKh2vTLXNtH9unOhZvs97Vu+fR7dVj16v9SOax+BPlwbBnP0dQr3Cjp94yTtx6T5zeO0f61PRl9avyd8Nl/I/DPx+uTP96v/py7dr60d/eG7Jb+8dm/LGAABgAO+AHEkABaAJjYA+8QChIBjmgFNSB6+AReAMWIDTEAcluRT8RKoIuQf3QJwQtQgHhishAXEG8R/IiPZFnkfMoZVQmaggtjk5Dj8KxL8cCbAB2iMqAqg0ng6vHi+MbqBWpbxOsCVM0CUQcsZiWn/YSnL++po9nYGFoZXRk/MS0jxnPfIJFiuUhazgbK9sd9kAOJo47nOFcQlyj3KU8zrxsvC/5Kvl9BWQFgeBzoQvCmSLuoopwLjcr3idxFT7F8qUypPfKxMj6yOnIE+T7FXIVzZRYlRaVX6r0qLaoVasf0kjaHaeZo9Wm/YOkoOurl6dfY9BieMPohvFNk17TCXOEhYSlo9UB61abeTshe0+HSscxZwGXINcWd+weJ48yz26vQXKnd51Ptm8gxdbP2N8lID3wTjBNiHdoRzhHRFLkm2jdmLo42viIhEdJ/Mlxewf2K6WcTeNML8rEH0jOms8m50zmJR2WzUccfVN4uSiuRPH419LL5bGV6id/na6plj9TefZjjWhtwPlL9awXKi5qNn66VHpF7Wp/M7llta263aYD3Ky7bX5nsfNUl/d99Qf8D1GPHj+Oe4IZyH1KeFY95Dli8TLkde2bj+O8k9bv0j7cmmGdO/pZZOHxt6LlQysmq/JrJ9ff/V7ciT8K4AAdvPr5gSRQBnrAGnjAsd8Hr/wqcA08AGPwuidAIpAOtAdKhsqhm9AEAgdHnYwoRgwgmZEU5E0UFyoVNYt2QT/G6GFuYjWxd6nMqd7govG0+EvUjgQkoZUmkihH/EnbTVdKH8vgwmjCZMpsw2LKqsImzq7E4cmZyBXD7c1jz2vJZ8FvIWAuaCFkK+wpEi16WKxe/IHEzC4aKRVpP5ky2WF5DgVfxSalVRVr1cfqObtdtNDaR3XWdM30MuAIthp2GN0y7jdZNTMzb7GUtmqwkbZtsddzGHYKdcG7Nrg7etB7UXt7+rpR3vlrBOQFfgi2DekLswh/GukWNR2THMcTP5Z4P/nOvsoUh9Rf6VWZjlm8BxdybuYdOuyXb1TAXvioyK94+XhGKX1ZdYVy5eNTflVQdcVZ1XNDtbF1nPUPGlIajS7JXDG8ltJS3Zbf7tLBenPkdvldl3vYrnP3FXtu9Bo8HOlL6JcZQA4uPJseGhwpeCn6qvL17zcGY7lvH03QTjpMnX4380HuY/D06ZkHs7Pz6E9cn2W/6C84LZK/+n6z/i7wfWnp8DLXcv0PtR9lP1Z+Ov1sWWFZiVppWVn9pfMr81fvKnHVbvX46sAa1ZrOWsLa5bWZdf51l/XC9Yfr67/lfvv+Pv770e/fG3IblI0TG32b8Y/2U5DfOj4ggi4A6LGNjW8iAGALAVgv2NhYrd7YWD8DJxujANwJ2f6GtHXW0AFQsbCJHrX9Sv33t5z/A3xU2cXAb6+/AAACC2lUWHRYTUw6Y29tLmFkb2JlLnhtcAAAAAAAPHg6eG1wbWV0YSB4bWxuczp4PSJhZG9iZTpuczptZXRhLyIgeDp4bXB0az0iWE1QIENvcmUgNS40LjAiPgogICA8cmRmOlJERiB4bWxuczpyZGY9Imh0dHA6Ly93d3cudzMub3JnLzE5OTkvMDIvMjItcmRmLXN5bnRheC1ucyMiPgogICAgICA8cmRmOkRlc2NyaXB0aW9uIHJkZjphYm91dD0iIgogICAgICAgICAgICB4bWxuczp0aWZmPSJodHRwOi8vbnMuYWRvYmUuY29tL3RpZmYvMS4wLyI+CiAgICAgICAgIDx0aWZmOlJlc29sdXRpb25Vbml0PjI8L3RpZmY6UmVzb2x1dGlvblVuaXQ+CiAgICAgICAgIDx0aWZmOkNvbXByZXNzaW9uPjE8L3RpZmY6Q29tcHJlc3Npb24+CiAgICAgICAgIDx0aWZmOk9yaWVudGF0aW9uPjE8L3RpZmY6T3JpZW50YXRpb24+CiAgICAgICAgIDx0aWZmOlBob3RvbWV0cmljSW50ZXJwcmV0YXRpb24+MjwvdGlmZjpQaG90b21ldHJpY0ludGVycHJldGF0aW9uPgogICAgICA8L3JkZjpEZXNjcmlwdGlvbj4KICAgPC9yZGY6UkRGPgo8L3g6eG1wbWV0YT4KD0UqkwAAQABJREFUeAHcvQegZldZr7++ds6c6SWZtMlkkkkhBAIoVUoIoYggSI2gSEAERQX0wpVyKYoVvXJBBUH+YAElUhUpCgQIoH86QgLpbdJmkkmmzylfuc/zW3ufmVADJIh3zexv773Wu96+3lX22vt0yv+DaTKZ3B+xfpLjThzHchzKsYxjiqPP0eUwdeqpTJrzmPOQY55jL8cNHJdznMfxoU6n80nO/0+lVgH/bYXC2CfD/DM4HsyhsZdz3F5y6Sh7OHSKj3C8Caf4Ouf/tun2UtTtphAMPgD5r3M8meMUjiUct0yYaTLHD+254zVterIwwSsmZTLulm6Pe/91J2VhOCpThxIUJp3SQRtj63Ce3zkunV6n9PvkGzO47rRx45bUZrk9n+PvOf4Mh1i4ZfGP9t1/CwfA6Kr+uRzP4jiB41uaYoz1FGh8wxgjd7Vp6Wp8jDcZ4gBdzr1Jwe4kr8dlvj8p08v71SHiLOTtHeNAOkmvLKXTGFXo0psBITcTPQQ37OAc38CJXcjFHG/geA3O4P2PdEKCH92E4e8Md6/huB+HLf/bJmBpuRiV8/w182VqiRYCHAeg7WI1LEcTHhsStBvXRoHxChximmvqTTDXaBfOg3uN5nvATEpf+CACv4FiCA3+dXUmi8jrDLhuzgcxaCT4FMdz4eurB+X/SF3+SDoAxngCWvoTjo2ttibjajiN/O3SRAv6f9sIgxC+E7Opp9F0EIymA3S0MOeYdjXwXt9MxX6P1s151M1I0ajRBXYe55miqU9mqMvwcDLWCXAi8ckWLHmM+aczQfgb3fUqwJ8P7+/4drz/V+XD7Y9Owki/xLEdjv6RY6MtbDQiHHOMRsO0vIO51agebfJyPLQFd0uPLgBTxZhtmBaWEQD4dAKKsZMGH91kPi0e8M7SOk1I1GgQT010DOrwzxHIGDw6ouOFDDKgM8ITdIxC11H2Ell244T7ZChINvL7j8rG8UvJ+RH5+ZFwAJTyBI6t6OSNHGvty/fQIuf2jMqIQIrtS6/fR+mwe5DB1SH1PB04O3lr4TSI5RngcU3+WEMlWyNiKIZwU+R77XCy43DDKkSTWhUYPcN605yna8vXsokDge2UHtHA+9RhXNGBiL3OhPFEmQUIpyOt5XijsiqzGf/VCVX81yWUcALU38dxkly0xty/e6EsEIbnd3XKysNR9XynTNEybXWG3TbpKFpLpdvqVfJwKxFgCQbRyqNYmopNDUO99bUF4G12TMPNCMP1QWlLllYiBQNIW7mtfrKy8tDZKU1r60Qi4t6+QCfQ8BLAaUbU6fV61VEAt0p3ih/GDE26kPNPQ8uB439Jgvv/moSxz4byBRwnafhqzGqbMSF3ir50uJ0osAMIjDFaoMUt6q3yrJH23Dxb5mfpHmyxtLReM13THnhBlF6h/QWBQ3rS2BYZI5LHZQeDdRcwXsYLFSaBREQcziY6jiN3V+NLW3yhq6PljnucIWMNyiq/ugN5FbqM5+STg/EFSce/oNGF9z/09EN3AIQ9g0OzPpGjq+GjIu2BI3Q8aEmTLtrm/w1fV+HjsjCnCqO0g5Q0KUtWTJWpKadxtf44g396enHYBbQSLhqs4ogBNa4DR8AmQ7qB4Kh0bPFJGNfWLipxJTrIcVMunvAtDvKES2ACpmfXotMYFeCn5oPHwOU0M2sVmeI+kbo7OM4IzR/iT6ueHwpJBHw7hD7MsWqk4dPPokwMoX2iTAr308oK07CVG7pl39WTsvViFY4SUaZKPpC6GH9QegNWdixzAbc2O3RMxEC62lJrPQd8Lu4kgWfYZQBIi6U0eL2q1a1oHQ5Qp3fX0Pu5J3KEl7DhtbWbxAW9SBaY7IJ07RG1uSSCWSDSqvK4PbhG+7myDJ1wfLjRUYPw9j/9UBwAoY7luA5xzuToDOeHZe8251M0Kvru2oq45X6Mkpas0BCjMljZKcs2dMrXP7DA4gyrdnQDOk2bWgfyfkJoNYSz0JfuxFZXjRjlkucZY0DECOPR6zP2Z6xBTowWPOA3CqUpg0P/MErJYwf81asCCS7uSekquHaBKHmEd/noEA56dC3m1bGLEYL7VM9v5B/P4646wjAIz1RX6izIb+ef290BEESjO9g5XOV79JhvLz+UJTY0Vw3TtiSUMo+hb0bpcwyeMNphd8SoC/1y+WdpRXYDVedRS23dTsFGZWEWuClDP0UaAgOraQ1oo2sHj3G2RB/HFUQBUWq8AYA037R46nfllYgxZrVQfzBpUPk3lGfwV7PjLC4fCDjS4EQNINpS2SHJjHhrZKhOLy5lJ48xhtFgZLeArjgubHTn/e2WblcHQIDXwfk/cAzaQV5aUtMC2xasyDGmhkAR+29EGZxNPUbMm+7VLVd9ZlJ2Xocx0pJrWeqgaBUHJIrEYLRoQaJYslsHs4bGy9l+Gc/o0L/bI6SFMwYY28LxlhgZXgqziY7PD40QIIV6+OxiyIqXIuCCg0v7f38y/rB7Q07zMHFmEdURwGbUgZXoAtzis0xHGOHIC3SBOASjmfIPjQ65vH3S7eYAMP4xWP4Vjk5rfBXrYfKs0A69alTn3nIM4/x/7NxZh8BYR9+jU1Yd1imXfrpThi6wfkMa7gLUYYCtnsHjZIqQLQzSuepX1w+41qhNUtmOB7LQZDbk2igRPg3VLOS4TiCPRhIPfxwgCus/xwQjBXAWIQwzDwKSgEGaX+ETPSISvOpKwNn6A8W9sgJn3jyRaS9TzYXZIPkV8j8mxtsj3eYOALMDjotg9oEyrFDx9Hh5FdK8KjBqQkPttQa3yezfSfjHOEOjAC3SRZaN95yUm68el+vOq8oTR5sGqzGFg0CyfNjTWahRIHQ0JAVGBZMOVaONUaOuGsYJKR+yigiEYDGYzGk4HQm3gjVwxybS0njA2vzpyiwRVMN35QGCw+3DMnchYZ2B7AQGK8+WCeU/6tkdxTnkE75FYQL/fp5LzPnwGV1S9yIOo8JtmniEcdslGJwB26UcRxyMVcFVeg35qL3qPg9Xks9Sr4q0ZbnyN78T5TiHVzH+I3/98Z1y1ecn5bP/MCpHnkp37bo9+o/zaGSVzr/xHOZEkV1MJh2nYi4lm4Q1dYgWY3B7V/kSEXY2ZGtT8YDPPGnopMIyaQg/ydQroFs9Dz51LKZ2C9cgwzac+GYy6FL6y3BkzDq4HKKrx2XJieSx4jjCC7oaPF6jjFzj8N4aQeKkhJT5/TgSOlm2puOi2ZXoYjNlzEdum3SbOQCMuePmMo71LWtt6K/3hjcDTjWGxvGusUmyVfaYUdleWs78PhTFqpk6HhFmNc5JD+qWG143Kdd9fVw23rnH2gDKZtCodcZorcMjuQyyDMnou07FHMGnjUephtj03zqXDGBSV+yy9kC1RCStbYn5OcsrVzBjXauFLoYZbe2UuQsI1+wdmlqNIRlMTq3rl+klrGTC24Slxc5+aFFvdiu8MluJgXkItWQjeKdBZuPIP2mQl3uJ0EVRb4GV0AXqrTy0ewR7Ga6Ar+NwAhe9f+B0mzgADCnGZRyLxpezeLEXi0ljqDwyPOPpPVsu5zx+wwCGxAX8e+hCCfqyQtoq1lpxWCmb708k+M/95dBjYR2HcrCIfWOscVp6bdm2SGJEcKBDcOhEXIhTQyenGtQuxpXBOAHFSfLChVM7fKm2TmYhwxsYjP7rqOz64qisOm5QuofTuqc7ZXojaxJ3heYqcNH65xiv9BnLL7lHt8x+GnpLJ2XNXRB6H1uK6CBHN47LrkvwB5xk1alMfRnj+LgZVqrcaRkNX/Di9Hj3jZOyfF1nfa9fLkPnG9EvWvrB0g/sADBig7DPv4XxyY9RPJuyVo/B9HR0H4VnNE2ZI+2xGzb8h8KnHADqKQjuj91sWinn43CAc/90UL5M6z/1ccBBvuu82+iCpbNZg5Zqq9evNLrP9Z0d2IL9F+PLFi0sXY1orMM/roKjw9x8pHrZGbSHrmd8JWGde5/9uyy9+gE45D07ZXCUXRE16Z27bBgZs8y7/3OgXoax7kncYCbRXUOU4blGDycoTFVX4CgOUwdX00tcWMqN53fKzf86KTNHjcvaTexpYwGsPw0EzV2ntGt0ADsm4uzhWenytWV9b1AcExyLvqIlOP2+0g/sAFD9MsdG+3eTile3Hg6E+KVVczIHG4wIZwpUh+0O6LQbebRk1mVYJUJhKNltW/qADqRhOrRQLMPDlEk55t6D8tW/G5Vj7kFYPBzj4ARBKSx17F7Cjzc4QJ7woXIjjrt4pKVjGM41eYaV5OmE4x220FGZ/Q8KcJAltO4xdaYOYanuzhhtIzVoquFxKfygQWlLx0fRu8818nTLyvsBRl1Ky2ATOD+EgXfhjDzUcoLXg7eZDZNy+Ppe+O1+Zb7svmJQzns7A0dmH1NHjsodH8HDsA3juq8BfTg+UrY9N0/KinWdjd1eR90zIvr+kxx+3wnjvJvKj0lfrzJtqho8GuFKhaOALIdiPFuZoVlBMlBjuhZQ6toiDLVDFoEueuuwHP34flYEawmegZIdIOlMC0yTPvKKefrZSXnQywkfOI2RwyhjF2KqUzpbP45lH6FTQL+7lEfMTBt7wI4YYBmS9zGmmP1ip2y/eL6s2DiFAUZl5mjCNwPPFacQYXgw5YKQrbnn7iFpiBiecY/GiSdl17+Ae2+vrHkEJcxMdFhTB6a3vYuWy6LWzJ3Iq9lxQAOoOnEGMmQNYHbXqFzOmscuBpLbvgDva5gB3Wdcjrxztyw/pI6L+shNN1CWrjJClPcg+2ND6Pv4+b4jAEZ+BfQeo7ET3lGuza8aH0PT0pGcew2PomghDubiAIZeLcLZUOdgzs2aNnJ1O2QdoDt0S5aDoKowQ2GHPl4H6DE4PPGR3XLO03eVzQ/ulE33mUq+c3p1q/FBFafxrINqL/f5LbD5Y3Qdj+gvIrR/rIbl8UroHzEphzx0qiy9q3mEbgzdI9r0ZjAQ/xwEuqaQqAFfEsgpRgbXp2ipGHL5g+BhNXsX5ASZE/3w7P66Sdl3GRHlzsqgq+tEOCbOa7TqDro8JeZx9NJeOekMeAT/rvuOy9c+PC4XvbtbPv37Q9ZCSrnbr/bLUUSipetqveVru9rgFTjBK0D6PSf19T0nCJ5GpXM4Y6NbotABMspmoFe3VMEobpYuOmHWxRfKEHAKBQ/YZuWTviEOoz400MWvXyibz+qXgUICKwnp6EBxHeoO2c37oeftLvOXd8qj37OMFcMDvqxzMUtkIIkiaeHzGHz+a8My/FSP/YI8Y1hNazoRw9JPz/wY/e1mmcHEhHpDdMclYZ0Uuo4fpK0h3UXsv9wjgNNJ5d357wtlmpY9s5Knkq4csqqo89euBxi66dktpWz/MNPZn6UbYWpYx6twSrejM/E/eenzlVnfYIA4S7Qa8hzkkk+Py5bP6jzdspvIsA7nOOWJ3XKnh+KwfXcxlAfB1yc4f0/pgNZuZTUEXgHoBzm+yfgtCg3vMmsGLgiTBCXn9TpHogKKG9rf4w3DeaTVIwiHRoB5jGYrRv8oonq6BqDUnLTGPt5yr+fMlA88ZG+5+G30l0+roXSWFbTZbeC+ppSbPjlf9nMuPC5ed1yvrNhcyoqfZK/BZoywFpoYuksL77jTB97sIhIqpKLTyRNnjey/g1PKKZtnR8Puz9I6f3JJdiKPMJbwcm+dSAHuqfVM/2gAN39uWA45bSr4RW9kQew4QihIy8NBK2l6OU7KQ7GTH94tx5/G1JLJ32XnlnL1V0blos/uKac8ZCnwzGM6nQ9S7zDOuw/m87tdf88OAMLPcMyklYtdpfE/c20tRrLVaqvcWmYehy3HFAXZNZA55KFPj7mzLU4FdTgGjAbH9PMqJyYHzkhrfykGVat61p8wVY4/c6Fc9hoMcGS33Pzv8+WmT9F3r0KswxbK2pO65dAfZ/C2uVuWMs1y4NVnJN5dQtN1VQcsGqkOLmQM3AnbGE6jQLSL5+m48u59HXRXiRauwPgfZbR/CtNBuwccvzpqUOVH/NbtMSDsH8bg8hrGFIwnRkYJIpou4hqBZyNgIo3yqhzIGC1NAxx1mog1WcfrTo8p5cSHsmV9HU5Hpeiz03ERTtvcUfhbm74nB4DQyzlO1vgZycs8jKqOvmETnpMwpl6dSJAwacuvQtn6FTTr8lRQuUwXolwg0ImAKB0cGVtwa89ua7Q1OTWbY0nYkLqTzSLlI6OydH5QrvyrcVlxaq+c+NQOgy1G6YyuDbWuug1mNDiG14iNw8pgBqXgr0aVYWihcLeM1xtlUsEMYxOR4AEccrSwnfX6D4CbmcDS+zEVpN0Z/uUREVM9ThO5uYeFVXftles/zJNLZgNuPo3mIOX0TsfLbAh9GP2GC1bEcTKwBhLedBTHIUvYmja9vFtWHaHjgRieYodO52TOL4fub0PxVqVb7QAg3gzGl843iziKan/kUN/+1iQTJm1qUpFZP899Y2yUV1uyLUso8Ph0TFyqBKHHdAm2Vr2mi3IWWEHbxXr67DWdsuP9w9Lbr/Ho508s5fhfm6ILYY30VfPlqOcsKWvvWkftHaJKx05aq/qr04JTfbkZha16NeJYdqAVpcVnEClvsWQAwAX/XIpvzELVTW9nAWiBTSuPxbGWISewHVbr4gAVME5fHUb6DPJYGHLB6fr/GJfDT6/RLJGUHczpGqGZjapN/WxUhefAqI/oSidAtyy9Zedz8sGP7kfMJPqD3ku5fit0Lw273+XnVjsAeD48PzfpzfPotQPDeZyKMgzG9Trccy3F5PKrk3A4hSJfJhMqAcUeKevZslGeI2HxOCNgDabsPI9R8xdY/bqEqdW1zBD2jZkbMy27P0vqTM8Gawalz2ikywK0y8D73jcuO986Koc9AEJED5UlH2NCvQ906lNBs6Ql7QpR4M2BXvJcU6Ha2AhkCCPftYwug8OUi5WB2ba3ExFuhJef556pmTh1X89ShSyM1ZMy1XUPuwGXiXncfV3tBsY8tHKgSDWIKkdbWZxcozR1Vp0oGWTK64QpIFfKAa/qbI4p7QR8dBO9Jcs7/wbgZrF9t3SrHACCz1+Ynxw7z6NR987JXF1xEz2Em74sXUNCt16LEAifBRdcNgszqEeFyLiLJk4NrDNPSNx+8ajsvhqDb+F+37Bc/e/dsm5tvyw7mqnTvYkIq1Aac/jusl7pO3Bj2pS5EkpScZtePCgXnjXHggsrbQ9Tk9LHMGh37Hq8ipY+9HTGET+DFTyhYyl6zEjbNQwHg33OQ1bz9IUMWuEVkHRp1tv5LxyfG5WNz5gqvY1SIVMn16O4RroYTBm5JJ/ypkzBl99xUnafQ1TbjTxuQwcsCuFC/IE3j6TjpNwC+fGfONYRfQi7PiiaY8Cc8RM80HOU2T042mBynDbDcXy55jum4P9OECBycLFjx7axExy5oDXVaoZTL7uEWx+BZjMGCnaRJezCrGqfEIo7tLQFl1KB37+HR7uXjsv2ywilXx2XvZcyMmcSvWQ9UymOffTtd3hKt6w5mmkic/I+D1bqqzpqFcwoI7MDHI+r8GTnffX/XCijz/bKpo/DGKuJSZxcRrb/9x3BwuDSEDqC3z4GnzAF7ejU/O/oYMLv1WFVPv+ol1aM4+7++KTsYf4zg4OtPY25vjSEA4aYUVnhpPhylpad2GBEARYon3Nc+BZG9iewonkGfAJome8e+FxDZ1ZHDqQzHoHn+I/CiAL4mVWjMo8uxyOXoSuf8mG5kc5Z4YpDu3bWq+ENit8+3ZoIcDabNKfsZ3uEQpMtvgrNDYM/Q65s2BJUYPosiqI88kcM72dv6pZtV7G4wcOUbV8blx1fGpUVR0Eexzjmp7pl7dGM1A9hmsNumM98gFB5GKgPQxj7ZwdJKCYCqh2TLZmT/bl9tuvI6xkPXHnaQrn2NTwyfj6dJBAqrw6kxIEhhB1YB+PP4phNpIq1WInLqiUgHaMTlQUXfu4/4f3dhN778vDmvijebs1uAsllLYYQlqQRpa2jxTG8tiuAlo+Hu2tGZdsXkfshRDLoaDsfXCBSkvpzzFAdiUwdqjG0ZfuJHrURVDvUWspaI67T6v27JlNMH8+m7FG1/Fv/fkcHgOixPIt+hLtTZLIKJpcKR0sXJ0Ipr43LFTef7inoAuHJLmP+Oh7vssiznwWevYyUEbkcwZLoplP7ZQUjdXfyLFtO2CIc6mC2hpu+RsWRBqTvR6gMCLlLS8ABarglgxQnSx5v+R7L2vlzca6/65T1T0cZPJ4FwJ6oKhElCz/CYXu0ekOnswPzYCu0MzsJYrKoZ9X5y4lWryU68fBn9cMqr7pfbeEVP7+BTQ1waX35zC4nyvQzk43n0B9juzvjm4U9hHK6szzokgE1KSCIa9dpFrqHb34TxcSRxSOdAnAHs2G+oa4NlMeuYGqmPEIbcn+5UN8qfUcHoMI79+1g/UsLK20jRGWnZtUBDlMzAs2em3iydQWvV+9jxAuDvs0zIBxN84h01R2o7MKLghA6u7TYTO2UgClPSPDjRs2pvSyU2PSgKX7rhDSC2RJ0xmozlU5ZYyhZXPfUqbLrHaNyw6sZaf8eGZlhVCPXBqtJK+62VYmw7Xvb6AVRMJNY2Lnm9xmArmTE/yiMv5o8jUR5HEsYUh3sea48plAyjd50kFbG5UeSP0tE5PnDkT+hMLCJoQMDvI0rOJWfSuG4xZWSSjuDVfKjDPWgUtSWCuJ+/+7SXb42L6Tevan2Tadv6wAgOZkVubu5HTv60hPFH9xMyViR2nE9B6tue2/Eix0p4am+k7l01bisP47B2OF4If2so+i+/SX/NbBjhRGLJkOOtG7DX3BTBvPcMhCDlF0N/uE5gsk+5ZUNzjJEkYptxyWDQ3vl8JexaeSFPK/ngdLSu1jJauJQV9QRgSevwaETxRng3SSkILa8rX/LzGQvUev5yMATwdoQKsQinDyBywGmTha8jb5CtaFNbdkvAx4qTR8xKtewNH3ETwAvUHs0xg8d8VpgX5K66JLyOEWMgYMYxdQAJ8dk0Q+8KA97Ch0o/pi2hKevi+Mb07d1AADftncHO9mCmynZ7nG5eUsp13yZp1T/ulB2MGBZsr9X1v4kCxyHdsohzMnXHkbrZU484GGNe/v7rH457TPsR6H05UMsbURJGOM6L0xY3ioMwfYVBnOMOe1KbP0KHDOpi8aACtgOvAzjFFQjcl5+BuGafnrr3/PI+G72sxpYkNo6Mtvz2sUryuSh77NoYMhpos+oXPr62TL5+nQ5/DksvrCaWGcw8IrF5CdcaSR5MjVnaZmEskxeNah2tF9HnHL0g7vl83/s+w4DHAIdAZJoR+STpxziEL+FnEXrzIRfjmRVXkLDe+vV7gPSaThfftewc8+fn3ob4HQ835y+pQOA6Oi9N0/uevX5PID4T8LpP7MVizA9u5f35G9mTf1Ok3LE5l45jidnqwntGnsJYX4Kz1bgbIps+ZRhr0lOybLQg0UNjRGJcsWxTCFHLAIwwEVfDh6F4Ey+PYItJXaK/LWeytGwJsCiEBdm1j17VM57ykJZdgbLwQ93sFftI4zV80ZQSFLflqP9oWcX4KPW695Fl/Yf/XLMM5l23U0A6IUu8OlLNGNNVRau4UUcWUhqCCHGAVmp78hefaw+gUhAuNzy6Uk57gzxWMgvQlpVpxcwjQD4VOLXcptF7esb2RUf+KwoAgsLyDQpX/mnUfncq4bl2Hv376pNsQ1N+JbpWzoAIH/1vhePOlt4Lj2iX19xLE+x7tDNY8i169j6dDgLDiyBLuMRZ5/OXqYS4lvGOevpMY6jQ5KKUMaYHQ7TarBqFJJQX53HJ2BxABxDQdRGxiDA1lG8SgCPCvLMocJCT+UlmxkFj0zXPqpfbmYcvPY0uiYGmcJVuipJRVI5vlOdqdZmTeLTw3LDO7vlsEfT798bddOFLfKto8RZK+0wAc2K3AsS5VVeCCJEKDV8Cs9llpBXnDgpV35ooRyLk7YpLV/8SUoDOmStteIV5sQBjFqJjoDZ+tWXEdP/l3x6vnz81ZNy8k9RdyoI/4qKxOtbpm9yABANtnxufMZ+RvGnPA7lHY4DHM2iCS182RoGdoxaJ65TRwyZs2XUcJzdMRS1rTvRAI/38aqdfBoqxrbca8W0n2VnSzVMgmMVNUJTTWFsle1qnUKmHj+Z23vPtTxkbaCVD5yHP61frnwJS6/vYlr487ZiknA8hcy0hbr8D0Lr27D3fn1Yrv9bZGXYtJ7pqUuuB1YqlTVIqkFkhNTmGalFVkf+Tb66D3/1/kA30ilHPahTvvgqX4NnvYMnfuKJ7nIWMVVT14tgTl5kpcB/RojquDhqA3vN+QvlX34PmU8elHs83XLG2bN5KXeATeiID6QDrncg77cZm/Xv/bRutiRtfABTqhN88MCcnIGcLzLqpXIiw8MM0GpLdqePA7Y8FUPwKCYUGD1HBpQfxjlzb1F93l7xyYILGW6pSqsHqB2Vey9UNpUEF9KaY6ZXnpOPw8gDg6OZjTgw+wavfwubNK+T9gH4rAhGDuqhRBnaeznz87dCn8HeUU9y9bEqOfViAeHMyynG4jJ4lSvOSaE2j5FsJ9zYvdW+2/xaJq+HnMx2MJaUL/63hTgNmII7sjYCpXGYq2zkeSR6kZXWr0yUBy9A27cMywdfMS7LiMwPfB7TYqfaODzrAjb23+a4RfomB2BA9PQ+O2RWMrBzjqqZ8i69htYIHgik59kPyYXEDeW25vAKU+b5Y0iqo3WuyetRNuU0EEB34xq6ExEQKHWps495QEb+alIlkhRa5UtS1DpGzVJ4jcuZ/PBnHZVO3prTacVsALn0r+YDR0k1mEoLDnlhzYJB7pZXMXJmT+DRZ/XKDN2c5eJtU6LEIh9Q8790OIxonpOE0ak4aTDlMonq4MOneut+vFOueK+vnVjfxtXAcK2OMm6yXpD5i95AElfR48wJLNO+HZPywRfNlf1fHpcH/1avHHIc+sosgWk6szbW454uHwcnLbyYYOCUSz83PuzmqwkZPGDQCPIvY46UW4WFHeVCyDAiTBj04gBzlUl+W2NRrLJdmdPwtn4HTCoPKSIYt2U/s4BxHodWmjUEN7wAGvuqEpUv9/nxXseItnKttn1r6Ihn8O22d86VvRfirHphUykGo5J7Dy74jYWyl82gRz6Dx7soTpnrwLE6e6rIpvRMMXabW3lLpFBWuz1B5K8BSRcWPVQMMTR6OObRrJ18Hto79Gw1pkFdP8Fx1UsVKo4j35aboltF9ZafIYPnD/3m/nL9Z7rlIX/YLxt+nJbvKiPFLkiJhhXdw7Sx9dv0jWOAV777heyiIWSsYavWWp6kHfpARsL37ZbVbKhw1Q50IKut2efoE6wXZcFsWksk5wcYhdQeA5Wu63Pq4lSylZaAGCrGJcUIZDlg02akqUuwKjEhFgXaKjgFf1qdECCDWoRMEXSlodCWrbkPLY3p4DW8VHL8/wYHFWtYr3gu/wsePrHX/26vG5QVd4EBaYauOEBSEVFH12vlDfIUkZkaCisf1SjmcS+65NmaEQs9KZqlVj70VOTZPSgXv39UTn0i8la0aRR5VyGQFdYyWYGFXDgGEr17KL7wf8bl2nN75YyX9crxj6QTVZEACy6UuvK7C7xh9EqyHsuRdAsHuOny8YNOeXi37KC/3HUV+9CYRnz1YubVH5wvG9iAsOaYaRQ5x9u6AxZ4IMDoWPQu5kkojiFTaCDOgKAOrDK1kmkZQSOGMBXj7CEOQH4E497NF84DejwqC/PAZU+BrcN6CkVYE8pytkTUxSJotY4hJVwTcvKHvtgQcodfni7nPW2hrHnUVFl3GnSb4j08hdz6j+Ny8sv65ZAHoQ6anS03LVZZqC8dk/kHxgM1TxLybqtvG0JLt1aWsQaLcACLI1kUTfFYd/Vd0PUbF8pdn8zahwNUwUktdY2ZD2ogq3aNh4V/cbEN6NV7ypfeWco9n7+03OmxrMMM1EXVsTiiM+B9m2lh3+RBQd78LDoAQKfcdM141V1+qlfcV7d/V7fsvD/brFjW3cmK3x6e0H3x7IUyOXdfWbdhpqzh6d3hD3AH63RZwTPx8BxtcKWACMo0Nwzm0bHhD4EFrN/lrIpLTZiL8Shmxs7hwxpbaQPTCKOmpaPC42CcdQPxOsiSZubgIBMusJR7XnvXfln5yPlyNYsvq1nT7zCNnedNmytewpLxk9l6/QRciQUsccmTy6yeq8EqbtA0CZrhQbri9x4qcWBqYaXqKOgBvuoDJ6vKLcl+WVmMRMCe8PPdcu4LZsssbxRNr0ADAqk7ra1jmdHgp0Zop/FQftE/j8tn/76UO/x0t5x6JiuMPD3NMwjZAY1Hhm+Riyiwd7JKW6O/8ynKQ1bPpufPMR2xfyZMcBCeNrlb12fMg7J/Ow8wLuFx6O7pcuNl7N1/W7dceMFCueSjrAIuZavyg7vluAeOy9LVhu0qQQwTiauR5Lxd8NHQDlBsqZBMVHMM6QuTh9CuM7DBCXQMhQgaoesFObWS95rApwkJe1yna1DqJJVOy+GR9eZfGpT///S95eq3d8sGwu3lr2aPHs590s+yhYwHUi0dDSpvGiBTUKOXdESJV+qYlSMuyBQujgPhdtbi4pXgcYxcaTjqYohEpzi1nDMOOG3AF+oYhH5iVE4gfDs41sBxwpBAAmkatsSrMUF0LU8Uz/3zUTnqTv1yz18clOlMJcVJan6sl8bV8OmGHhA9n5+nCbYYAeb2TB4MD6nXtiRx8ApSWbaW3S8s+hx6gg6xpOxhtHkCo9c9s3124LI0/CmewP05fewHRzzpYv59H+a4d4ZZF1BCHbzSNe6RrdAOcJw5GCXcqqXbu0+zz2PWtTiAYayG4cgsrwhNTZkKlyrDq9ont2HOYhegJBcnooKmcPq4fFO/HPnsQdn2/3XL3s/sLzewFn/HV02V6TU6GsjkTAQqi7NZiTTU9yyNZAZOgNQgi2hhxGrgpCs2S9uW2z7BE71jAOWPIblfyuKaX0K57PVz5cRHu+3C2rUbkhH1YgAQq84hjn28lPqJP9hVpvvLy/2f22NTbKg3VavMVQhR2e16qo49vw9bN2nRARb2jo/sQikhC+iqAGtVj4rsIuL9t1U85Vt7NBhorT6/33Uac+hL2NxxJV/y+PBC2XZOr+w9jU2Z6/HoB7FUzABSCUBlJRQGgwmdCJdrslGIb/MyfS0ziOg3euO9SpvUXMCI4jkAUoNRtQpHSWZVIl5UEwjdgDJW6JRNZy0pX3sfvLKhU5g97+N1rn9n2vvgcVlzb3h2Ayn5hue2NQtpnjqomOt1jBjk5KbAegHNWafR5z1n/0EUYBdHHsKFe/j2RZdTntEr5/0m+ue9SN8xlBiqqBFQo0s7uPh83tywnPcydhZ/vl8e8NfsgyAC1CR9tAOsTQCqcRzHXOqy2oAZw2zheWRNqYln/8z2y9wWY6trSlSqUkmVBAtwyq/uCGLDrF41YHVw5Xpu7sYq2nYeb/LIYfZaOOD9ta0fZmfKhzvl0J+gSzkdox5dmQuToIlSMHoEjQHpw3ikNbD90kycxvh+fwKHUsFD/VWh6gglGurRjjhN8hUgT8pAsd2aLdSWOsPCyFHPWShXvqBfDj2TnTm0nBvgcfeXJ+WmY3nWsX5SVtOdrfpxFEgUMiV0g75SqHkqM/jjyNAg6kjL0K3eFvmpGLLamUUs+DTqCWt0zMZZamw4nVd+kXsnH8BY/WNVbuWQZui2xAmbX33hbNlK13vf311ajrqPXUaVzcYLW6mRp6zqRN2ACFRylYZDBOATSJOfgcf3xgFYwfvZul0LzlKhETrVrInBxaUncuG1BtABghbs3q9gO9eyMwZs3WYj5w0Ynm3Q0xeB6wLenqF/W7GmX8aHsnGDBywMRaoR6QbEaQA1RLm+vZKeiV5bdkXvbxTmte6XWYWlMGAkkSFxtAb3LI+Lhsv1ASdZ/4he2cEDrtnLFsrx/7NbZnioNX8t45xrR+XmLzIH+RKPuTey7aq3UA55Yj8DSD8RqzqyqRX8zLJzLyE+dhhNOdiVbstsrnWMhmf1lxt+lE7T2M0ZBbusV6yl+7z2n4dlzY/RDVSxEi10loQAMs97wbBc+b5OOfXlfQaubEtDOVIIjD/hwQoWpKTBxb2KJOWNqVH5WS6rA+AR98qWaSqrYPvrjGIjgRmwCvOu4nGTaZeyaHTuyDNZszpKn/fqlhxNWD0az7wHuRezSeQz4D6Xaci/8rRvC/XoRmaeiRNtkj8V0+CmRU+Dx5a/mA2EN9KUnrzJmt1AvrRBnn24zlB38DYKoVweE8orirSW3vJe2fDsSfnyk3jo83GebD4eZCO6sx10b/cntNKd7buaV7n+jQWxK1he3TjHK91ME3k20CNCSMet5EiH1CCmeiKC/HGr4wEEjwR7Muyeqm5SSLnMUCR8rYwzl3LkLzCw/kOWhV9CdQat6iTPO6Ch7FveOOIp5bDc6bcw/pl9xmc1AsqPAT86AW+w2zDMDREbhxQrf/LKs4F7eZ8IQOs/XD4iDIWZYnCfPCp6Kdo6yq73abUUSDxvBSs015mGhVhVvtOt7l3YyXs8eO9OOe/CD69izPAGugr2B47XMw9+OurZHBIuV/JpduqoNGlLo+VB/GTY8pOioNqWnFUwcAdYYWWgwqD+vF3TN+5GNeRQvJKHPYc8hpnA64fl8MfzMXgGrFO8i+gxoWw53dmye9LfbuFDDjwW3/Ee+k7ezRusoFt7Ms59R/oHtBf9Siu060kHzQslypAijEMkqI4oYD3CETKFX+qsvS+yMSvZ+VXGI3QDVQryqHvzB0Zl+5sm5dhndsuxT4EwEUmnz+CVrjLtpeFB/Mrd0uGicUzytBNptD+fomOTFl/32H7leLrVdPVqgKxvokIbZoYwG91rBEAUKB7cwgJeW6flsMCihi0wAzQGNh0e0faZHfRuAG4j6+9bEZYXLLZsG5Ue7/kf+ngC65K6uNMOXDRW1sPBkz5OGpUqiGskSKiH4bQWlB6euIe9Shte5cvRt/g0GgONcswv98tXHsbK5yXj+rKo8BwK12f//urTUCRetYr3Evb+J/xeiCH+aVj24RT7NvDFj9PZzXxvxijsPQyPRkCakfXzPQMIScqGhSa4qnyoD8n4Iy/hifKptcwITuyV6/6Wrufu06FtA9v7lSF7Enl7+YHMFp7BQzkW5fJyqfIHKeLgwLwvWxux9EAsXu2dGVjjgJEdWvOzfPsc2xsBHjGcpfeSGTnifwYpGVDUvi0l5Acbcki0tjIIIWwEUD6QSNhyf1OFHxdC2ugSZ+JB0xStqL8TXTG13HkZreycUq76EzSzmt1AWCeRhboRUUQkDdwOCCVnn5uNqJyHjTJCl+vwRH7qUT+tT67Ik3edZjnP449m9H3NH4zLiW+uDhOHV2kRstKcPobBKV3a6H50W3eiD72Sd/m/hGH+ki1XfPihj/MufRwmPh4p0YHOYFLm1jmVR8PXKBrBFC7yRTzq+AHNw85kWfq1PAuZXcJjdPBvGfGQiqjDl0jWP5t9GMyosktLO2Bw8eWIXIR8kbU2UYiqiMisVdSZ8i/Mc4Ptey990ct+hc+O3CvmggkVTn15i3GrKNyQJCTOGDFCNg6AcK3hA2clEMiMbSKkxG0GlWNUQVhO7vEC5zLmwNObEYzp0L7/YGp2Ex0iaw1LjscZGRylRYmYVBVIXmhKw7Yl7mpkTuFFokaR3PMrz+HRPDLjwFwsPYnXyl5MRD2Z4xiMR4iznAZTaYk4bNP/E8VmjnezCYNb+B6wPhJFfYU6n6FL+9wC7yQyNuDpo8arXyvlWrmZMlftUkd+/KdOcsePF6SlbIff9rpRWf0QZkOsD1z1Er5HdMGwbP4DFnpOpI6CNPWt1K4LpHoES3Hk045tlrilHH9QRq5nVnSu7734ha943tzu8eYwG0aFhDGNzaXVwmSQ1RwJi6h6txDkJ8OSplYURwlwDlBMloXR3CVYUplcBo2DjYzG74QxUfKVH2V3Ps8gFq5jL/4XAOEV6QGzh56LBA3dIOK6zq/FDx74tk/0XEkAgMK8rc5b+alMkGn+DDQ+W8r1n+T7rI+BPk5obevIu7gUDS+reMnv030MmPFMEQ16p7B2sanyMbpwWBY+yeziizx6hmffa7CeclObS6/4B+KaV8+Wyrc8DliR3P4evmVwGWXMzHe8jm/uvdLuKB4VTIAnyZtdrCkyetZusV3FR9CJzjyZFCXlEJ1a2tnVe9H/fMWL2TmKesnhv2dbakVSFSoRiUkkYFyIKD+NkhJiIZxsqLbKS/8jKEUWJ4RT0YdEQzvlFpf4GdX6d3ku/DumZ/TPA5YrdrJ1+kbev997/jDv1U0f6gKNgsuPSHWwyl+Yy3XEDH8ZNAJTw76Gog6hUwiy089ObyQKvJ6lZD4ItfZ0HcYSC6sevKzKVgDlIL+RW4ftUb/PU8QB3ZlpcjXdxUfolnbwVG41eIkUYkwp9dSxDCBB5QOe5C8zH0LP3E0M+P6RdftLWFF9Fvsbn0REVF5xh3FlBwvyG1d88GPy1wdzpkQ4I0z4bORujKBtVcPUTGe+z0bCdZlCROaohOqVGBRCSIYdF2TQR0WibxCnT44g3KMYN1qmZrgEC6GGAWpSxgAaDJGFatfKKy5zSPy4rnMjn1Zc/bjptLKZe/CiyOd4IEVfe/lVjI6PH5U1LOCsUNkIhC1J4Iyw4IFGhCc3rUr+FFyehYRP2VBxVf2M6KFx+JmlXP62hbLx1/u8lWQlYNWS3CJDWE+342BSBYJIbyZZlu8HMdtZcjJd1+W8t/dvrDB+jZnDF3gvgsfR04+EolNI6VovHuSJlqp7QEu+VZebWLe/llfmeDF2zzX017+fPVKlz3b7PjuzOu4i5l3JDvdTbCrh25i8ZwjPbMrtceQjl+BpqKVBK7v2UCQ3jHIpwLo+q1NLVVr1KIQjN80TBh241L3mqqqZU4q2UbaSGy3yZgt5WdvXA7nOrlvqxyEhlnffqRu6/GjoPPRQj5pCWLjyaSgzYd4Vqe8FrrwfYwQWlFbdkU+j/Oe43PAWQvY1DIqO5ineU3hmcAz0rA++GF/E4NDo7t5VzzG6UCjKTS62APnWoRMRKNv4K/S3Z7Me/8fz5aRXMcdSJ3EA6oCD37o+Ao9+9EkiZrdh3cigVv3kXYed0lPHMI1kdXH0KSDYYTxkatf5aSLF6fJ6QA915uI9TIuXsuljWFRjOnrTdmZHvP835t2MPooZX8oHKa5mtZKp9b7+fLoL/07qHFFj3zRfWvEPZ0B/DwamJ8ufKpqjifj0dekmHjixy2mGmcY0L7es4QnueGrCYzxge82mTbWF3DlkMgJqZP6FQQtJKiSMe5EM8lIPpAiRFkcNbRGX5rriqOAiEKMt1F6Ay9zrWO4xnGIWMD+PAqUHjh7v0615CCuEPGRaSuvcfe24XP03vE28jUEZH2o8mlbbY2pk6K58VKZsTcEcvjVcjQpBy3XsyMojjOQt5BN/bVCu//NhOeZpfNL1jriu+gCDh6KY6vItOWaS2+a3MknDTMc1M/ei/I44+9HsXvgCsx2ePi7lrec++DtHAMMOmzoeqOjyjQFbM3VXPZql6Tfj5M/GAXhnsWeo2847f+djULrKLm8w98b9RMA+U1U/kjk3j6PNQpNNncN90ONx9959XF9tjOHLZxvQ4TGsgbAKO2EMM/zxyZRfUOv7Tp5bvuqAovVQiMCMrSahDslspSYVWEMt8cLOPIqo4UulJpokzFGCRQxzwuhEtjg/ZFBzam71gtghU5whcNkNA+pQ1Kqk/koefDyVlzNvpoURTvcxSLzijRDcz+oR6wvHPI6vhQkoPLzGIcjQmZ0RxKktAiqyWBY4YKmz6ZdxvA+wHPt/RmXzG1BaZFcHOFYclR/loaWDIfJIp3VyCEAcApzzrgE6cADbcaWR5yF9Nm0s0LfPbadFsydn5r7Gvsqves41yHSiVU9g0enN8M2u7D68+66FAIP7MBgkLeFv4/isxHp+Yn/NmE/num0PZ5knFI9wgH3sb5zl5Z3h1m5ZuB7HoSH5/sY03dcSQgR/bIWVdx7B5a1fDdeERt1KI0ecJgxKva5mQV1nQBFVBUJ5pdzN2crmcO/iUXMX46sw+1CdRJ02YJWeVVDuThgYoUGV3C54aAxbiA9PpghhRz4ND2YdwY89uQnyqk/M8hk2HuTck9eteLCi0xqlwpt2I0wqX4fWUUeiysBhmAIcaBZY2A3Mo9UrnsvU64PDvFegdY1S/gEJU35Bq5HMCglwe+GwIJ2sONMABKJIBzqalvfsflnYyMuy57DU/GpAv0arPItIw6wiDQUE4rVxTW8iCsDVkAHlYGNDR2WpIwgnAmsvmcI58jeOMapfPuvbKMGxYhMNCQhN2OPJFrnp/3Gbyjen3v964cteznvpyakygiRMCK3SpGleReSdUim4Lds7W7WM+BsccUuRkOlP4HKDEYGhXGdSaJmrwguK19I6PvfWcbnbzw3KDNuzo/xwLh1Zb5lDb+x+WcMAbmoTAjIa3/5RPsj4RV63upp+jq5ieg1OBL1+nEkrQiv9UuU23EE/ssgn8k4zuJx31e9jbKl+LJJPWUk5lVlN1LToXPKG00YBlga1Zy8OJGsqc+9k1hM2U0brnHsL3wvgy+gDuokO/FtdOKs6UOtcxe6sz9J/80ayZY7NtG1oozv/STDw8ObZgavb06q16ToAcazlc5y6Gs6ZTBugax5dngQCIkUq2lrFSaGKSx4nU/qq5FVFVKev8An5siNTGlfkYhU+CdwgdtCVLGkIH5iQqcxTaOjkW+GJ4rWueIBVcGvJZ8NHi3/lKWxN+9WpcsJzp8r6e/XL1fTjF712rmx5NctdhsWmXjpMGLOhSjsG9SIRSWY4ILL+uYTMC3hE/AbWI1huq7JYqTmgryMnefJapLmu2Yuj39Txx+r8A2ZwIq3z1wjHZ7Ek+2amfX9KJtGrxVH1yfOIZxEp3o0u0Zvog98T9CRZ+Q9iA2vuLcizEu6drtr1+RmeurRez/KQ1cqFSac/5Lsyi5zDpzqoSv5GgtVgMqHxs1bAOUrhRyXlBmIRlHvDD+YCn2UaQseQAOfkVMq1XCDyKZhlY/hkQjymoK7MVUIKXWsI5zihvacu3nzIg3kP8P5LyvLp+bLzmmG55i+YQvFp8nVHsG7/ZDxL3qjXoglboAhlNChtFbCUHcTLf5bl6TdhqCfRF/MJuiiG+jqjFbLTyYqVeRkhgTne4rWFpAZe2sKaqw7GjA2W8tJpz8/lvpdhDJ+InX464467qK/aWKaOw0moMb6Wv4u4YSqzLZ1BrUYILSlacSsX57RyIczisCPNNT9xGDLHbPnvfImxGHs/eRhUG759nMqpRlNJFtxSPmWNCMJybUBOa0Io7+OluiL5NaxXRqvK/RWhz+0q/5ySQGeVMOhr484CxGe2+vTaG3nyN2Vcmm0yOtQiypgHb/z1QZm7hq1qM0zt/nK27DpkWLo3Likrnsl8modNwlpHum3VZAanOTybf16nXMODqlmMM/g14GA9MxZKk1ri7b3nb8zz3gO8SZ41hE5BgdFu6lc5s+C163lk8emc6VdhNBaONFYdm9AdycOvVn7d/JoykFZ9AKcc4I29JAivi4tVXjuADE1osFmn8wUaxjnMTpZOeEFaj6Jcu8mW13pMm/QqSOa2nTeLK2qCSc0aAwERKD3R6yCrNSvD5lXmo/zGUcK9FID3kN4y/D7r+MEhQ+LJTajoFA4Ow2eD0w84O9nJQIzzzJH9cvRzURx/WHIvc+eb/ozv+fLq2sr70cIZKEoHDByVg5y5VR/2mYMjWGvg3cgdZw+JBsC7vi+4RNOqPTf3Dvi8aU7iyr2MtnKmTluFaCMy/9Opdx9BNLiYKEDEmnst45dnIgtRJwtvm5jevZNV0V+ltRKiNHrIRCeQgR9RWaJXt6w53pBAlvT13iug/XGaIE80ZWtipNnEzASvmTDlsvEnqReJJNSRk0GYFfhnkimT4HGECFLNk1fFvAeJ4TQoAW+yyKP1m185ztw1A8iKMkZxzYtlIAzJzkDgpKcDCydCvdxzHJB8dwNnTz75KlXU8uwcu898d8PzBmVhy6DsOorNFP88Kld9eYGPS8+UtWe50MTwP7gVpvLFbKrmYZi1/4MHMz+B17wbhE9DmdKnmGeBGANZNDz/a64lcKUCxdGm1jlyD3+CaTROiy2WzR9T0LJo9j3sseQtn2XPwHmPowt6eq/setmwrNhFVHRZucEjBuNvxltmWpmfrCWQv2hPFs2G/wT/l0HxEjhkG8iEKengAZyXdv2DJszURqxfgSReBNp4EUyGQepp89qKdQzglFNNk1R6dQ76a6jKh8x57ZfBsvXbaSX5zp+rZwYoedb3JY9g49rQxd8C5Z4cHYlTFRrMMBtqKNU+OBFFOPM9AMy3BMyT/4bv/jFs/vhNrHI0U7AvzZerXr1QdrJtbe29h2Xdvd1+gs0waORtcPDJk9LbwLOBn6fv/Wta30PAvRGcGWFDWyUpbZTFpUxWglyTb/J+sbyBF7CBM8cUXOhm8HzwHsn2Od7p3wV/a5iSLmHTyuzLwPMByp7cwDpdVNeNDiIA8iqzY4SQINSP38v1FRDgxZfJWYw3OLqP5J6lZGcT8Dbsg4e/4zmZApSWA0v+BxGmAJGtiwwYrn06QPU2clVBAMNw0heHRkl/BJyja0N5GKNiWj9nR9AWRwiu5UWHScjDCmsKzwFYnbQhBZ9ewPRN/HEszpTkN6NZEHhXl3fxBJTu1E+66trk7GTtE9lL98CZcu1q3gJ+/7jc9HkeMn11xJ6AGVbXbD0AUt36nnyReskLemWOx7zzfz5flvBItvLDAqrAEG0XuSJEo/wox2uN3zqJjIRliaRiddzkYcwwypT2SXx0Y3ev3MQC106+TnbIH7AhZQPrB29aKIMn+xl6kvoAPmFbGcUYPXNm2Xj+77Ab6wfdt6H/n+NJK6uJ5depwzcWJRpS8IZK5vtshdrXmS/LYxRbKjB+oJi9CSHUIpdMSyRCsQrlk6fqLFWAGBg6epXTbZUkrzIq/jy7ljr3CdsKIeNNMgLZkpdxHhD36zt8MGq5eGTGOrnxWoeQTi2Xpk/UJGFhVark9BDuAZg+pFeOeQFLoid0y/W8lHn9HzNApMvZ8PB+6W+i36VpwB3w/kKJsNvnOcHO57H2zgskfbdqUVzfBYCp0Obchg+ZZH9h9SYZkXFOwpkokrc4h7CN/HYn6kqeB2z7WkVEuIk9gLN/ycOks/jq1+9SDeMWlrytXvGK2CsyeO1r9BaMu4uMP8eZH00X8svgfDb3vPcgz8JFpsjGVbezj6XgznaEWZ8RLgpKKKUOUQFDVv6qbLZQ+NcxIlFQ1csoQQNHushE78qTwCpUWgkMpPXGOjAIE35yNg0FxDqCjuI0xromQduxhN/ydx6v4yAm+XVQ5jzd1j0P70MYncIr0z1RWZwhJzKjWxCKmC6BHbUrT2fxaNWgbOV1sVVXsPrG/Hzmafaf4oYfncYoxmtXM2f3yj7WF5b/Bfku2qhO5OaOHxCqAwcrni2QiBFA0JaJVGvyk3dQOfSEE59OMP0MXsilC933OyzbMl1UJx22r/MnOrziIIlDo3wU21zAmR1VIwa5088Ex1OQYSPlwbtYw1bPjTwgG7Z3KXgLLfVkCccYKDLPBmRGT7a/EYn1rFzr2tQSsvVai9O6KbYVK3jyrcRtvSZPomTpZO6jZ+yZvLwZREFVujqEtpUUEBjrJEmLu3w70OgjvuZ5s6B2vYAEPk7QCqohAKjjDfkBv4alZRzxIsK8Ee96WtnvLfAUkujA3kSXmOVD4fyE7Mzz+E4Sn6afOpcdz/zNAT2z7QZCVCVIzxuZaa8V1g5X5zA1IEB3oiAAACdNSURBVAfOZByU56UO6HnmaTgzj4QnzAxmnNG/gVxatjImXU7VjyALfb2jud4vQuenKLk7xke+OGgaLHltJRE3uoCtLX2+K3shhQ+1dWVABw5h/LFPdiFGj7T1ViwQ5CpKbODse7P6ZARRESLglGiB/N5U03tF99Aop0YGDSNR8TIQYl18nvjDvujchweKK1NceA1fdimICT0cQqeNARg8YmypxXjwkfzck6szyxuytN/lcwxx6EtBegXTrcNH5UZCbv9mwuddaHksLPlyiBjH7BCeeVi3zNE3T7H83PWF2MgGwuAEryn8eUGmxMKXHk9WxlNqzwokL5OXu+hOo1kaPVK2/CU8DZwjj0fK81+ne2DTis/Mx/+EzOdzfjeO/FTQPwDCZ9AtixT1eZJ0Rdacm4aQAhtQr/P1Lg7wcUO39s2Bp2a0Tm39sLFV6mgMERqmcxEKGsFoQFacpCHMrcbRCdy2VbuOWg9yaT0qVsShw7k6Gqt2Bjzx6XzAOADF3sDiRsJzVMG4t4D/5hmFcqMzCb+ohZAhj7rAxHDAJ8pYx/qbCP8vH5R1z0LhFxEN/pjFkreAgsUZSeA6ZRkfpJ7/HF3Ne8jXUOrDFB649tZrL1S27IRYUyZTHspmofWFIaUaeskA2vvghjZfPOu8iIe5P8H0ELz73sLxJv4q6isB0g5PBcfLQILxF50pOMXdIAcsPEUpBxHsjc7tzyzvvX8HoyPeNqVYpVAPpRii2/CrocSVAR8AGrAmDLt4XXPiuRFSI6hwFShS7hsGFFaDpXWHH37MDMPs0GlGAYvlKrMxbkI7jmFyKkit4GqjlAtE5oVncS6mlj68kG1kGGOcurtHeA82n7BGP+A9gNHbeCfgjxlf8LcJhiwIlaOgw4Oi3qNoYH/NYs1DydtgpcpLY1UySGHAfJhJsUoi0xOhOXWa4kQGygJGsTD1ySM5ym0oX0l4fhSrI/9OXHsN3cH9iVC/AOBvwM9qK1nbAxo6V275aXXaOlz6yCbfEDnTez+Pmjtz1108nMNYLjvX0ErFPF7EYP75U41acXI+CEnyLbNQ4tKPoXWgVk4KydNAwrc8idB6DuCygESBLd2uxAFobRwVN7UilfVDxHDaGF8nU08m68QlpMNNjQi1LAJUAYGHF/mhYuuUMhZ5UNaSU+Dp9+hapqn7SZ7hb2Ux5WGjsuy+g7KcD0ksPBXtvYGyl0PY0Vl0UnlU1iSN3QprXlhv+Bcg5V5Qpjx2BRqqrWMRlSY7WI5mk2j3K3yf8Uj0ejormUxnC3sQ40yCKbgptBcRg0t6JIs9uI0dvOAv3iKvu8lYj54aX1/bEgZAeXSpSX7xMwcjcPMTzjGQa8uGUlu/Icv89F3c29jtDkKz4VGFH2AgfERONF4Z4tzkcpYT/oEk4RpOs38QxagbBWhbu3KoSOUXRfQgn3LP2cGluBwr2OL9J8/qOVGOs5MLP3AdBMDWs3CsJfD+XXk+dZlaGQ0mf0v/D55ppoULXOcTC1G6BE0gi9LBY0rUkknuZV7F6iyLDsO1zCRxLS7wi8YqZQuFf000+h2qwvfMMzD+71DINvr088ELnHVyzVkarb7lRboWBwQNiNcfNj9xVWPt9HT5DH8kYZMtIhHKEhmjsq1IJTr9cn4v8ypHJIZ3lWpKH0xee1/1YE1TxZEr6jhy14ipmuriU+n0u0ScOWo5RWxhNGzbmqOfRmCpiSb8kSd8ogTn1unkK1woT/gGPh6DW0C21uEsH2GWH/iQuQxSGVxNHc81f6528l6QbKVR3IfBIPv+yl9xz5fFMjdXGJkx6YHiiDIlTJkni1uYgALovdYVQP7kDYdbYNm69zWyr2MgyLOI8hKuebhVEzIBbndtSkSjah53J6fBY55CSlvicQivycPmXgUFGyv4ZoawANFE/Jhxn7XB2ud7rsRs7f5FDfl0ESgtVPwyo0OA2LIYzr6rISizInFV0SxH8Mrp4aITJw5+gfED0vtdHIaPwFC3NaK6Cs7AV2fNbACilsmnKWRF2ibrUWix2T5UUVSvgw8elG0xtZcRhtzD0cerGPv8BlOxLWBhr/70es6fYrjNJpQgqthEKDKYoV6IcB/mOLeRpjVEaAKIoJEN2cfn0wCILntfwjIkm0W6DAAnvw8Mm1/kNU4fY4mfg7qRTJzet2XeeN/mRznQsVxi0923c1UdYHpl/7387TmeI9RW6CqgL0uKwXP6Rgzv26jisaXaIqvOzBNxLcsKrFVhNQzLtC0BotKVIR1En3Aq5kCv5gvCPQMzxwBDNnJUi+JYYT4YG7yUBRc/0E0rRjDxZKYSePMFw1FqrVTRWe0O0oJgK6DB5Q2AJit4nSOFwOEAD+X4XQxxImVsuCzLOJyb78RYAgtvy/ece675n6NmHsCtTqRTC8HHzT/wh6d5LWz235iKPrHSKsfBP1bL4FfjkcIzNqrWE49ESKHf4PVaA7WyWI7u6xgONS/r8JC5QZGLJd1rJ1n6ow6euOhptR7NhjwRaiQQpZ8X/6IBNSRH+iCdoTFAqsAN/62vM6TVYTinVgomLsvT7zLucBprX03VCKuDBUYBIj1n6izO8VVASPCTWnAvr97pBST7/Fxxr+MlHxjhEko1nAABavBYF5riztkLXkwpv8uZEXi5A3uwL4Pbf+ErjNaTt/DHtRncLh5meR84b0xkGAE/jyb+Bj7+EH0SfWf+B2H/T8DNQlWNGoICy23kgK9KhjwdoUVMedMqa5ZAjfwBQQeJTks611rL5Bg2iT/u8BH+wMBZLSFH82l5nBU+G0cxblVkNaRUMvgDg7R06i6G0Z4SbltZ+tzW8OaLkh/AqYhBuHbnq3luefYTMe5bczrUdjPCSiPsNPWlFyQU6CAxpjypZIusgMaltMgL11nmzuwDemmxwpGaU4ykENYXmfnCZdGm6qDwNbXC3wEub0br/OVv1qEdWFXYMNAgEw+yVA/WQsC1jLPvv3yUDZnvoNzG9ws8/n0OYw0fzfG//qAHhQZPGiC5VS7upYNRkc5cKzS81sv86iDW13u8Vo4lnY+kjJ9FB5ie6f7J7J7JWenbk1uRxkxWgkBaCozECBBtFWxr9b1+y9tolFBspKCmjNaWDx4yHEdYbqTRoWLYhiMf5rgGqNna9f7ICe7AUe+AyFXoOgtpeCQrzgVw6Mo5COSDoJo8nVsh4rwtcVs6NKoAjTJVrK1GBrw2W3hvFXQD16+gpX5lqRnki4B8DRylc2ul1K+XwTcHrB9pO2dfKe/Aee5OfR4ATe6KZPPwjV/oNL5gqmOJytVTWanb5asGZCWpIdvcVT5busJERpDgAPz6ZtGrWtgDDrCic/4NV452Mvpe5SfINK5bqTPiB1mrhxC1JehNCKY5nPPbih3QqYf65YrKR3jkxxcXOni50zt17Y8t1uigE+QJJPkajT8FXcsVglTDuUJXWWJg6ugmWu2Awau9jAbpM1X8wYYAXnn8GJXdkDKJImBc1lU7MivZlpglgQvj0WDNiqEV5hT+eKF9koa3sQhjvuFQ45hUnIR467n8K2u77+F+H2feRSjsOVCJ/r1lk7xFNvHIDPXS2Li3kSWaZYwmMIe2gFSu/VGwdspJdmgLQza63tmZPvDXQ1r2BONPrU7OEUuISFQlI1Af/ioftmiNThmHmQeWeA8YSFxCjGgRNhTrZrTfdCH2/dbPCxaWI3BaI5c6D59GqDRDoyJIa4anNpSnJaBU8ViWJM8Br0rzxqIMboGt6/+yA9/kA5WfdFEqzLpqxLOHSaDgF6f3TWFbfjBwUxSYFrk4TOK/mNb+d/tL+W0MvwKAF68q5Rd5uQ+ZF6MGTwB9U6s6PXUaB46+uda2OnCYsSwtUgJe8xuv9p6kLOI2P3xyP6WND6TFCGDWzIreS/cPJ4/RMMEHglyLCGI15MMKtEyGcad+TsXko/bDnIkE8uFHG+oWJYA1AEpwVlGNCQnKxWXfljWFIAlp9gNgJtmg3DJTjA9i81Km11cL1TxhKsKmLgjAXf9FhRWftSzyR0HBIwWfoFV0lV6Am/LFlh1tyoAHldoWH164TxRob4QBiD+EWT6E0Q35l6LynyNi/CbLjK40GjVbPGktKp2MsMCP/xMRgCNlpRUQndoZl38HMa0/SAQQihSbgUdcre3UzUzvpRWg/gq2mKanO+czBthaw3I1asI0TFaPlJnwFGOQyz0ZpHQZlqmAyn2YsFy5MgMgP59Kcz2APB3G8YPgdbBXnYzb4OWOCCOszsChVym8FWLY5lrhJQtMGz7FkaxFhm09FU5aocFv5BIwfJhLEq65rIbmJq1OQFIjc4CCyJ+KuyL2Whwc1zFFfCePF3+bhTdeFy8vpL9/2RKMT50Yi7NOIAoWyFIn+dRlgcjP7CiT6OPI6qLltYWjqkm2Ms1r9BQFxKlETup3txL+84nYmlHFbq9z7s903uxFWodebt2cqtIyeIOw52pcIgAOHi+DYnQMk4kGVCQHpxCBQkSKIIzDgIecenChYaDfDC+qcaTahsM4o2gU0P/xbBCQ7JpMjkWSoJnlX7RVz+CnjsJkIUrtB1YK0JBFeIxDCyeaHCFkxQpvXmvc4EsJeRTkaMr907jn0+Lfso21ghvKhA9Ulj9dW8r9+CIFA71ECglENyFkxYrMRkR1YdJIWECSL3XmeCv8AnugsdV6slWFBN9iH8d1E9FLY9tKpP7qS7dI51/AIw7eJ1TJGkSmtJ3Ksd/NJk+YYUxHieWwA6PVKNVYipOxAhfWNUXNrdOAR5g4mVjEvwiFEX3Tt1mASoumvHW4wAnfHtTzOj7BOREChLZ2Da2N5UVa0pFl31dcaHiwWwl3lpmCmHOArdwUqFBDrqmFkRnw5F448017aNIf3F3Ka2n1n8UJfp3vvrzgKD6vSrlOorQy5uXB99YVhWUUxug5c9vwkejcyJKl6obkovPFoYAXkWXKUbvQYcG2lhycvskB7n73zgKfLv1oWlt4RHkoyX5dZeWsoGEoEjgqiSMnNIFd/nWIPKnjJq1dfhoLxJhNa2lbrHrUqXSyqQ2yaAURVSPW1UBxAmO2uDgysENASmL8dClcalfdLNvGuaeK4El+jDIOw49/FdOdSc7gGpRC1gpWUhgV6LXaaviuwNzfIkHVkP8u3lr9X1sxOCP8P+D13ievy18dr0xQQXztYWYIky/ueKTEuAXGLlC2syWO8tyZIUgF42y9JrN1WPNUlIpwdjE9+WgH23J3i3SLQWBbwsDvlzDmlXibf6irOgDzUUfyNbTLnNdGBWSxn+Yc5iDsP2WK0agvb5ZlIYPyfG0TQ1cjVj71bMXzL5X0+HiUzFtHPDG4ypeegi0myrkVD2DRg0Wpkxx8U0dMpj8kmMnMBk8xKsVROUcunaDFL5KEk0aJqetPKHFu+eBeJRvyL5st5ewdpZzLSP8pPKh/zrq6wGPI1+CpKjywkYd6GkcreBZG+nqnOAPT1OM2JM0zhU/gKK4CmnnQvfkqvuLjsyXzvyTEN6Zv6QBLl3a2zO0bf3mBl3Q1sMwsLuSAUJwTQnQNy5Q33qfz5lJGELIqVzVbR8XrBMA0TOcMrE5ruGtXung6mRXB2MB6WNkqtYUIS4XmPl/jojDjAXCFB6Ctm7EHF6nNvev5GtjXz3quvMkvYV0l+GGK9P/gcHSd8NsyqzGUSS7CSH4EqsbajZI+htE/eBMRgKneb2H4hzHF0zuta1UPU+pwZnC3mBp0wS3Ng+AtgiMchCuFYoq4CCD+RcRcHnyrUgNL/qDz5c7SpVu4+qbU+tM3FUz1Oj+H8aOTGNpmyH+ZUaHKEXpg8CwfuVfhFNr6hTRSuO9O3m3Kjivq2MJKIgHGcr0ePS5gnL3XsRcg08VKq7Zw8YILuHbwV1u/tCmQAOdElZBq8uRYXjjsEFpHsUpk4Md/5uud6l++6om8epu8euNlSitNPuhU3renlBfx9Uv/MNf/PqKURzK3NwknqFr2+hbalj/yFw8uvBbOwxmBzmOdHORpUA0bh7Q+16awyY8CeePZooqLDyp1fk6wb5VuwdLBAK4WMSX8ksQc5TufF6strBpE/CoV5VoRxux/03KEJDPXnIW3wQknQctyzYV2d61b/dufD/iKRZ+vWGSOLHYuxdPi0ljk5BBvkvJ68C+yg7StU+tVuBZmsV7VZCJZ6goAbn8rDU5WDR0ZabO5kNAVdKlv4+H963CAxzO3f9WhpWxmlG/r9tGvMCajqCk6bM4KLm5/DP8iTyj00mvrc21di9M9NHCewlMDw229F47CGN5Myqc6Xzx45c/cg5Oovm3ij0ceu3/H+BJG/tmmFtztlK+tCQ2nWZaFYU6G2QxeooDGabB8uhOUHMcx5LaULdOxuHeas+u8UVl3Ks/eyXERKNMdcIlOvEakJE7qwQhi5YwjGiWPGFEKZU/fPrpe1BmIjEy2+swW4tRirA7nVZwFmEXFShy4MOmA5wKONzHY80/dP4sW/zPM79OtNEB56Q4EGq6tZ6s+IHVFJpM2C2FSztk87g0o4anlQ6YCr6aalHuuW9S84cR7LtwDw0JsWdc9nvcYLm/Bv/FstW+bZqjIn4Z9f6iqgBCr53aKpYJsZRLUMCo54Z88Dag3xkjRaHKYTdWuwOmpBucUfr3WWGvvwitQVGrDcsI297VbafBTx3oeBy64NAPaeZoIroZs8iMCPzUCyAvA3Bu5wmN4rVgtrdyKv5FdI83y80lW9f6QaR579svvM9h77ApgVCVwoV8vq1EqvrRuo0KmkuRJkNt65lqDtfW9Ep0g8JQxT1tPBxc0lQ+cKi7u20Gl9Zd03/+djA9EWPT8bdOKdeVMWth8+mmoZIAktTAvg/U6oRYstn4NlnuKKq/CVANWuaphlDmKx3Ho8hcNnDq1Zn7jCMHd0Au3ms/oIpLKfhva28Fm/YiDjigj/IYvYWu9DEwtknZ45QfY8CRz3uZHGhwa/yMM8p7P3P4Qrv+ChZ170vLVQZuE01gaqk0iN3lKuOesU4VGA+fJA58Kx5Rn2Zcs/S5dggh0IpN0cq6nipxri0N7wpcxyplt6bc7a4/vmFDq/ukVk5fEwRtNp3XCVQZ3nDPa954mHUcGI1cwIjcOvDQ4iuU2XZuw3AjrAzO3aGVwR3nVg62P8vyCBiPXJ5SgUzjxiks6Kpf7OJwkzeTeVq2SMuC0DsSSJ1GJpFglG7lSpVJreJDZTDm5D/w2Lt7B8Tv0gbxRXH53TSmbiNGWy0OrSYU0ryXipWUHjwnMM9P8HNZp+OLeRhZ9ILeRQJAqNzDCtV1gI8ciqdBt6K/svETbWfU7pRbFd4JJ2a5rx5ei3OOiLBlojQoGQ7NMarZwTP8bAbjPEz+8OkpBMG3nV65VSGbi3Htta8w4AGVm/BCpyHe9oFFOHAKlpNGrBwyXvhwUrdEdZ+RNIfrj7E6Kl1SF6jEq1MUmua37AHUMaMqXeLzwihG3exjj+FeC9G/I5xXt8lSQPBPDu/lDOQJvZQ/uwxxnk3kOCNFPFKDwfoBAeeL93ltkuYl7P9kDelUcw/uTCzL8D2z0HGJkBHcq8wMeHW1QLusc1tvc5n6nc4YZ3wmgLZta23no/PbJhbQinkY2AiFs5EBQ2YoubPFkBoSfdB3wVIVAWqvGasCjQZeW9XhT2r0VBQNnhBUeyTW+ilKHtRFngbfSVekST1kFkB+jhs1eg6tD7RXyMZYQ5oIHMKhxndvKT1gl7you/oia51HGVq3C3xesWMg3NdWSF+TSJz8W5EK+pBcje28ZgMps+NPaCiVnwpDvexLq2DFht3UoB0yC6bwqYLEOOGq4o1AAxFzVfagXtybJzq1KS5Z0Lh0s7byyGlyZGF0jWLZtqUoYrSqFORMn9Z+3d2RWIyCRfxfQ5df2Aw/+yXn1EFuBT105eA1eFOEXrsKkfaeytgYDlzwIF0NHIYAA5x4Fv1iqo6nMfsIvNNWPOMi3S3JMoBOIv+4+kmluNITewh9wKq8k5Dvi/z2g+PtBchBFC6dxNZDw1eMP1BeO6jFWkHItA+bx3n/99Cf1aqsh3zIOqnUZDcfJ0VV2Lzn/l56HSTzS82j7CBVoWlZeyXeSLq033/23RfndIRuIvVvH5w/nyh1VQvYahBdaJsxHBzoCWGMowl/6aOvqzuY3AttnG+rjyVSQkTxsAswRfBTFyXydPlvONLihmfusGvK4VOPrIkYPA8sQmrzvCC7xsOrH8/IeCrXbST3hpKVz6ADg8jU42eI/DMKLhuC7xOVZ3PN9gPIaEJ9iLc6twVQ4OFNJA5nvkT3+XlMeA3HNZUK/zmKy9UtYfHE2rjVkZVAI0CArvhf7MuTIqqYF4tKBqa+PqyFlj1BT5Wudw3unmHtrU8PRrQWXx8mKvVePt2KjGQdnTt2SlMFWDkbl0CSmDP5gUCOZT2BDT1SyVaLofCcA0EQxANKv50lgxWc3wBX/dDKUop74F9w5m9F0O+BcWNDp0IyOGB5wgJapZIOPs9vdxCJMFaE6kFuSJ/xFzg6fai0nAfBGSo8RgnqyouEoqo7AtfcWB4kYSZ7kQd69jmEDAHyDJ6BBCD7KvNfTSVDPgzHZDrgOxv+QFqcXMmOeJ0ixJL6/s6F7GAM/5qe3PjVc3foKElh2SPfhDPL8/kOSjSGMgi1hOVxRZOuEYccE/lHKHApgtLC4EcDrLO7gVe3MIkq2rspuhPUq7xGaBw71ygVOVxmJg2HYrPmHIa/TPkABDC1PgTPylw8dkRwjR3SK8Yf82bjxE0B8Eplv5dgMnOht3SbrWc3kObTF1ZSb56WtvcmqCMgTkY7Btq+qALMAWjwsRwfc65jyxesalHNt72MGKV2ETkEKWcfFq7sP/16Nb/2K0avvIbG48InuMsYD1sYQDtBs2XXtzihQ791iZYiuzxLs+6tQEUYNKCwolD/hzBYQhVZmvOQ/cOZzFo4aVefiJo8fH+joE/60g06dM3+5izpJ4iAzPVH1KqrCJwbJCqIrh3zbf+8TRmXfCSD6B2rxefU6EgNZNFVxxLCRnXyZN8lLEvftdZzMTDKMeBrTPGcGSeQFRhxNnpeA2ViU1jek3L8wQpfjRg9usFVf0b/VVtDvr+h8gqvvObWcfM8VrTDcPn73eH95jG0s/abM+wl0JKirgtXgDszsZzVOXNY+UPmkzrk2Hsr1cluO+SpYfPSzGs05Odi4FxfP8Nt+EBinnBPyHIjar9uNpAvymj7ZsUBIoUidQIMbZuOwegoPoMafAebJvJlzIm9hnQ0lX8owOR4JL9S1z29510AOTHWmtE7K5d38yMA9tzWvuRZfyoAJUgFIFGeMIP5UEl4tVl9JiJcUxyC8UGahn8eZ7r2Hv1P0WGt+P6nh4PupWussbJt8pbMwvnOUg8INxy6Va9Ss4HHOzmGFzKEkDT3vI0hzHwAKzVepTR2dCfNyy4qhlVFy9h+4fHiLZLdQDVxpcA0j7TpFxhdGi8YRJGCjss8fP466m1Hw+9Gw+xF0jEQNCGg0GdWBvfTQKkYsBmjJ7+upFFhHAGl4qcOYdJYYGPwDLhwsWi4dddAMkvNalHIlStW3pPIgDr06bc4LunRd6oLR/lc767qniv77TVD6wRIK7o63Ti4fz5aNSpKRvVhrs47gCbUqLwqgTKGV3vAZpXGrEszTw81zui0Or1Em3TM6RwmWk5VFHIq9ztIvsBkw2kwa2p6440BZraJTHPXVQt79338vPsx4HLOCf8Yh+FMsizwZtsOzlUCkMdNNcdbQXvvwJVQQQNomCVsemZq65jnmEGaagsW9OW25gpGk58g6Tiorck9V7n2ruq/zq8upchUt/1j6/VCx6veTGqrfT9VaRwYYe57YnZ5s8/WxxUUgFa6wKC1by20B7prxsCkqFVnV4N6YGnZUVqt4ctVFHu6Iizr5YDJ50K7diii5j45xEh3OSKz9bP0OCjONkp4J3vzM24SXNMZ/xDrBJvLeR/YK6MMn1Rr+qNBOc4I8RIlOnoGRQC4465mynwjA2fx0H5TBSyKa8Nbz3vMivPkc/M9DES90NvhUjc5icjiGoA7fLdqG8U/8QY0PhbDh+QdORIJlk22Ty+DdF6dJemzT0mgpzmnz/lxaEFIYOiWv0AcnBW8VZBSwHnUc6Cm9IV38OoLYJ077VKzOx8nw3q6eud9QJ4lNrN/QmgCv8ef/DFg+sjQ4hxHB6rbPqdzXQVvDn8aXp0SmBokeatgWuS3SP75uNNDzBPaUKNDgk3gY4T6Myg91RJeuRTjLOMyLQ3ANSMr1cMunOtvKIZ3jkGsvGT9wEv1tkmSos76zic9PX+ezeP4jB60JPTltCfMqRWXauu0DPSuXZ1MrvODmaXxktiV5ck1B+Kzy5b52CRo5IQAoW3zb7+ZFDxWXliohEzzxd3WGjPKH7+D2lRifPywRvlC6tqj1ubCKh/zYFGNQrxFEOsLqBF6kdXNWrpYHz/LcJi/VQWCaeuJoLoNvMaIDLE7rSNdoMlWuw/ibbivjgzmkPd8mCcb2d6/oHsNf2bg4ssO9fEfoSIJVoxy0YCRoHSCSC9cIHCs0MHIWw2M4WzcgTieDjutqHF2NPAvN4yfTJOzaTJ25IDtRAON/lAUjPra0/Lf4NOtPk7m4XckpZghUXmJocVr5oMR3hBfpx3mlbTmwLWh4FJcZ4vAEUJuvTIkWlFvmtfIbZXQCq4kzPHMedC4uV6LbW/GED+hbnSRzu6TJTeOPjfdPHthVQQqWLoAft7nEikhnfjwFNlwfV2DvlV4LqiwV0CjFXcn5Dp71BQl4c8F1ErdV2Zxz3dAQjwUXjcvND1ooS3kpc/BCIwZE25ZmBXuCxQR8jC8lUnjzAka8li/L+V9pcZY3PT78c9kWJAoBmC6Qs3CAtcVV+BbeM+XhRf46H++s7Z9u7m2dVPntkjpru6fzYOL1rNnbEUODo49EMQRk25ajvuRCGPvRJDNJ3tpSmv6wllpWuxZnBRYHtySCp95aJwM/6QYIwK0cf8hfAGGBZ/olPgSyEnnS1pCt8aWXQ1xcC2dLbvHYkhP6G1rmx6k5xykot9sLP9Tjf2TT4XPDyUFx6zzWsYGIQxDLTIjAu/yvv72MLwlZvN1Sb3Xv2Z3VvSchKH8OG6EyaOKsfCrUcxRtU0DyhETZ4b4dQasQk2ecx/XnLAdbPdyzSmbIVHni08EcpafvqdUiJZt4yivxOjacLj8HIOlaX7wxDGcWhOo1iHRQyzz8aY2Xe/OaFP6BVz4dST5kxPryIm8ZH3AdfilLPnBtw1AX8iwOaVUcC2V570mdFf1nk3m7pdvVAeSaJcqzy2Gdk/iezvWLSlfOKAaZW8XFByhQ0bYwU+D48RwFcUlrc9CXhkk4dYpZbQ2QLdGWZAUALMteA43xPgjcQDl/CgbFQgca3OZHBBjpQLQHlqya4UWT4mTca7BU5qwRWwML1jq21hZh6/gy7LVySFcn8Nob+bZMPk19dLV6cFJnaf/smnH7/d7uDiDrbkzsHNU7Yrx6cjbyMjI0swoVXXqpEZz2RYEqhnuV24ZllBPDU56G41lYQa3L/9QV/oAiyQPgcjL86taZALHgE8VrEJ9n62xGHngSfzUuODSeuE2t4clK0mCUT5zqCBRYz976Q2phnRomT3w6BfdWSxfQwnJ2F7G6WdY5u7N++ojvtpkzNG6Dn5bN2wDVrUMx2TM5Y7x9/C7WBVapWP9EusLHqLYk73WQaBP2NC5KczqZpALZl6mzZIHJTOvxvyLx3Bx8c7Ds5/hlKmxEwX/EG7omibWva2kMnQayMUqMfRA+W2aQC8O1kUsC5ltkWc75MaPeC+eAr+3WhI8jmCcM93Y5iQhcdzo7y4re4zozg48Gxw/p5yCuf0gUGzKTm0Zn80HEx2Na1EFrJp+1OfTgtU2BsxshMLx684HPmHfV1Hfm+tpBY2Vt2GcFLEPn2QCYzKecWUgZ80cX+m8Bycewsg94onyJAefKWlqiuLjXyVoHCEfc27pN1mtTa/wwRrndlo4qT1w2THImwz/6a34Y56TjBaYW4wBjuqR3dlZMfdcdvGK5rVMj3W2N9tbhY0HmBCLCv4z3jE+srbk6wP+t7uxZowjCOL57m1zOaBEhKiIIaQwq9hba2Qg2FqYRwUJiJWms/ABWNmoVEKzEwg9gY6dfQEQEFQIKCgqpfLsk5Pz9/rdzqI3l3Q13Oy/7zOzs/J95nmdnZncygWODCyg63Y9H+hWxYqv5qdos2LT2Ef+0aGlURXt6OP5nBMDp7WrPbQq7YjcnzcfNWNmEAyp+QKawtAZxA1nM2Z4Low2TQ2v50gqsvn9pZCDqU6RVLfhKJyVBej+EeWmDuNee67xlE98LTOq8IzYWlyYYy5W5qDfeWewsN4ebFWbgvjhFkLb1EIfPr0HcD7c/o+EAOMvDVBPWXtL0MDMQUaAU0ftwp9ozT56rpAmEIBUgfITwU8l9GIPkOM+lLA6l50bkm4+0ck46wQ6z4Zf8qROSi/pnQMkRv9GjrRXFqRJ6DOcu9FbqhbnlcYKf6qRSYz7w7tqT5mDn0Mxis4o+3hy+Ak6D0VZRBfRQ1xYOZwOHw78jQ8/WDzDSi4SZCH/iv474eEgSwQCvr8voFLTgk/H7LQLm9c8vZVuGYZ8qwjRGKDu6nKCu9OzCENZDLoaU/ZhxBGIDUJYSZaberBa6q/X+3iHvWYpxu9Ik467HX9cf9AeXqm+7dzD2jope1vfbe2lb4KcxCWjB2wsFMQARFyPvyN5+C5rHvLf3EcPPnq6+91xo2oCSRqBSHicCOr6DOKVMr2E4EoSw6/oF0+tT5GgCqDyRUF4ebSnCpFxvrv5Q7e3cnBTQqdXIWcWJdTDCqarPFgk/Bmf4Ghaf0IQZwCIaIuK8bWHFub03d4Ov5X8M8NlqrTrPHsT2Wp1MIGiK6tieRJhNTF4B/tMgDG1bbs61ecIc5NGkEF3pIEu58Tnn5Rq0/Xzzgu/yrKESXkk9ic6qTrxz0Un1c3eNXaWvVxiOgMa8cAsCGETM2pPlDO/oJZGLMMB7XtkWIBOli14nnK5JXNQyIITveQ+ZqSPuBFFsCZItw/loVYXMI/gkJRwmIF9GORkY6DbveClzHQPvLsBLNdHO5poqBzOwM3R1o/pRXa76uycI94ZqwNsACHvhPRmA3n+Ed/U11EoPVmroih5vRxcDdDiH8y1JorZOJA2JPpGYz7KEdQfL1GVg3fpX1ePL/r3qEUxzH9C186fGTR0D/NuyMMRxNhi4BjOcgxmW2EBxXzu+PCT1sS/qob3VAMwhUQ4x5CCNbsnJIROpDtosGfxR4sxC1G2+sTJzA/8ZGzg8APA3/9ZpmuLlFqepzv+t62B7cBbj7jzMcJI3RZcwFg8w6oY+YElFzXz0FipFGyDTiTRB2XC34VnPdZhQoE6+43+lV28A+Gv8p/Vs/fy/F58ygt/X/Aa6ZDjexgAAAABJRU5ErkJggg==;" parent="2" vertex="1">
          <mxGeometry x="724.5" y="640.0045161290323" width="58" height="58.91" as="geometry" />
        </mxCell>
        <mxCell id="407" style="edgeStyle=orthogonalEdgeStyle;rounded=0;html=1;dashed=0;labelBackgroundColor=none;startArrow=none;startFill=0;startSize=4;endArrow=blockThin;endFill=1;endSize=4;strokeColor=#4284F3;strokeWidth=2;fontSize=12;" parent="1" edge="1">
          <mxGeometry relative="1" as="geometry">
            <Array as="points">
              <mxPoint x="648.5" y="550" />
              <mxPoint x="648.5" y="235" />
            </Array>
            <mxPoint x="680.5" y="235" as="targetPoint" />
          </mxGeometry>
        </mxCell>
        <mxCell id="341" value="Streaming" style="rounded=1;absoluteArcSize=1;arcSize=2;html=1;strokeColor=#4284F3;gradientColor=none;shadow=0;dashed=1;fontSize=12;fontColor=#9E9E9E;align=left;verticalAlign=top;spacing=10;spacingTop=-4;fillColor=none;dashPattern=1 2;strokeWidth=2;" parent="1" vertex="1">
          <mxGeometry x="45" y="95" width="640" height="210" as="geometry" />
        </mxCell>
        <mxCell id="340" value="TerramEarth&lt;br&gt;&lt;font style=&quot;font-size: 10px&quot;&gt;20 million vehicles &lt;br&gt;around the world&lt;/font&gt;" style="rounded=1;absoluteArcSize=1;arcSize=2;html=1;strokeColor=none;gradientColor=none;shadow=0;dashed=0;fontSize=12;fontColor=#9E9E9E;align=left;verticalAlign=top;spacing=10;spacingTop=-4;fillColor=#EFEBE9;" parent="1" vertex="1">
          <mxGeometry x="65" y="160" width="130.5" height="140" as="geometry" />
        </mxCell>
        <mxCell id="338" value="" style="strokeColor=#dddddd;fillColor=#ffffff;shadow=1;strokeWidth=1;rounded=1;absoluteArcSize=1;arcSize=2;labelPosition=center;verticalLabelPosition=middle;align=center;verticalAlign=bottom;spacingLeft=0;fontColor=#999999;fontSize=12;whiteSpace=wrap;spacingBottom=2;html=1;" parent="1" vertex="1">
          <mxGeometry x="95.25" y="215.1" width="70" height="70" as="geometry" />
        </mxCell>
        <mxCell id="399" style="edgeStyle=orthogonalEdgeStyle;rounded=0;html=1;dashed=0;labelBackgroundColor=none;startArrow=block;startFill=1;startSize=4;endArrow=block;endFill=1;endSize=4;strokeColor=#4284F3;strokeWidth=2;fontSize=12;" parent="1" source="361" target="363" edge="1">
          <mxGeometry relative="1" as="geometry" />
        </mxCell>
        <mxCell id="361" value="" style="strokeColor=#dddddd;fillColor=#ffffff;shadow=1;strokeWidth=1;rounded=1;absoluteArcSize=1;arcSize=2;fontSize=12;fontColor=#9E9E9E;align=center;html=1;" parent="1" vertex="1">
          <mxGeometry x="457" y="110" width="204.5" height="62.4" as="geometry" />
        </mxCell>
        <mxCell id="362" value="&lt;font color=&quot;#000000&quot;&gt;Streaming&lt;/font&gt;&lt;br&gt;Cloud Pub/Sub&lt;hr&gt;&lt;span style=&quot;font-size: 11px&quot;&gt;Field Data from&amp;nbsp;&lt;/span&gt;&lt;font style=&quot;font-size: 11px&quot;&gt;the vehicles&lt;/font&gt;" style="dashed=0;connectable=0;html=1;fillColor=#5184F3;strokeColor=none;shape=mxgraph.gcp2.hexIcon;prIcon=cloud_pubsub;part=1;labelPosition=right;verticalLabelPosition=middle;align=left;verticalAlign=top;spacingLeft=5;fontColor=#999999;fontSize=12;spacingTop=-8;" parent="361" vertex="1">
          <mxGeometry width="44" height="39" relative="1" as="geometry">
            <mxPoint x="5" y="7" as="offset" />
          </mxGeometry>
        </mxCell>
        <mxCell id="xwxbCeUritOEieoB_8Dk-428" style="edgeStyle=orthogonalEdgeStyle;rounded=0;orthogonalLoop=1;jettySize=auto;html=1;entryX=0.5;entryY=0;entryDx=0;entryDy=0;startArrow=block;startFill=1;endArrow=block;endFill=1;strokeColor=#007FFF;strokeWidth=2;exitX=0.5;exitY=1;exitDx=0;exitDy=0;" parent="1" source="363" target="xwxbCeUritOEieoB_8Dk-426" edge="1">
          <mxGeometry relative="1" as="geometry">
            <Array as="points">
              <mxPoint x="559" y="360" />
              <mxPoint x="395" y="360" />
            </Array>
          </mxGeometry>
        </mxCell>
        <mxCell id="xwxbCeUritOEieoB_8Dk-429" style="edgeStyle=orthogonalEdgeStyle;rounded=0;orthogonalLoop=1;jettySize=auto;html=1;startArrow=none;startFill=0;endArrow=block;endFill=1;strokeColor=#007FFF;strokeWidth=2;" parent="1" source="363" target="384" edge="1">
          <mxGeometry relative="1" as="geometry">
            <Array as="points">
              <mxPoint x="704" y="250" />
            </Array>
          </mxGeometry>
        </mxCell>
        <mxCell id="363" value="" style="strokeColor=#dddddd;fillColor=#ffffff;shadow=1;strokeWidth=1;rounded=1;absoluteArcSize=1;arcSize=2;fontSize=12;fontColor=#9E9E9E;align=center;html=1;" parent="1" vertex="1">
          <mxGeometry x="475.25" y="215.1" width="168" height="70" as="geometry" />
        </mxCell>
        <mxCell id="364" value="&lt;font color=&quot;#000000&quot;&gt;Processing&lt;/font&gt;&lt;br&gt;Cloud Dataflow&lt;hr&gt;&lt;font style=&quot;font-size: 11px&quot;&gt;Field Data Processing&lt;/font&gt;" style="dashed=0;connectable=0;html=1;fillColor=#5184F3;strokeColor=none;shape=mxgraph.gcp2.hexIcon;prIcon=cloud_dataflow;part=1;labelPosition=right;verticalLabelPosition=middle;align=left;verticalAlign=top;spacingLeft=5;fontColor=#999999;fontSize=12;spacingTop=-8;" parent="363" vertex="1">
          <mxGeometry width="44" height="39" relative="1" as="geometry">
            <mxPoint x="5" y="7" as="offset" />
          </mxGeometry>
        </mxCell>
        <mxCell id="409" style="edgeStyle=orthogonalEdgeStyle;rounded=0;html=1;dashed=0;labelBackgroundColor=none;startArrow=none;startFill=0;startSize=4;endArrow=blockThin;endFill=1;endSize=4;strokeColor=#4284F3;strokeWidth=2;fontSize=12;" parent="1" edge="1">
          <mxGeometry relative="1" as="geometry">
            <mxPoint x="759.5" y="200" as="sourcePoint" />
          </mxGeometry>
        </mxCell>
        <mxCell id="xwxbCeUritOEieoB_8Dk-432" style="edgeStyle=orthogonalEdgeStyle;rounded=0;orthogonalLoop=1;jettySize=auto;html=1;exitX=0.5;exitY=1;exitDx=0;exitDy=0;entryX=0.5;entryY=0;entryDx=0;entryDy=0;startArrow=none;startFill=0;endArrow=block;endFill=1;strokeColor=#007FFF;strokeWidth=2;" parent="1" source="384" target="xwxbCeUritOEieoB_8Dk-430" edge="1">
          <mxGeometry relative="1" as="geometry" />
        </mxCell>
        <mxCell id="xwxbCeUritOEieoB_8Dk-443" style="edgeStyle=orthogonalEdgeStyle;rounded=0;orthogonalLoop=1;jettySize=auto;html=1;exitX=0.5;exitY=1;exitDx=0;exitDy=0;startArrow=none;startFill=0;endArrow=block;endFill=1;strokeColor=#007FFF;strokeWidth=2;fontColor=#000000;" parent="1" source="384" target="xwxbCeUritOEieoB_8Dk-436" edge="1">
          <mxGeometry relative="1" as="geometry">
            <Array as="points">
              <mxPoint x="704" y="526" />
              <mxPoint x="807" y="526" />
            </Array>
          </mxGeometry>
        </mxCell>
        <mxCell id="384" value="" style="strokeColor=#dddddd;fillColor=#ffffff;shadow=1;strokeWidth=1;rounded=1;absoluteArcSize=1;arcSize=2;fontSize=12;fontColor=#9E9E9E;align=center;html=1;" parent="1" vertex="1">
          <mxGeometry x="625" y="405" width="157" height="85" as="geometry" />
        </mxCell>
        <mxCell id="385" value="&lt;font color=&quot;#000000&quot;&gt;Data Warehouse&lt;/font&gt;&lt;br&gt;BigQuery&lt;hr&gt;&lt;font style=&quot;font-size: 11px&quot;&gt;Customer and &lt;br&gt;Vehicle data&lt;/font&gt;" style="dashed=0;connectable=0;html=1;fillColor=#5184F3;strokeColor=none;shape=mxgraph.gcp2.hexIcon;prIcon=bigquery;part=1;labelPosition=right;verticalLabelPosition=middle;align=left;verticalAlign=top;spacingLeft=5;fontColor=#999999;fontSize=12;spacingTop=-8;" parent="384" vertex="1">
          <mxGeometry width="44" height="39" relative="1" as="geometry">
            <mxPoint x="5" y="7" as="offset" />
          </mxGeometry>
        </mxCell>
        <mxCell id="391" value="&lt;font&gt;Shared Dashboards and Reports&lt;br&gt;&lt;/font&gt;&lt;font style=&quot;font-size: 10px&quot;&gt;Dealers and Partners&lt;/font&gt;" style="rounded=1;absoluteArcSize=1;arcSize=2;html=1;strokeColor=none;gradientColor=none;shadow=0;dashed=0;fontSize=12;fontColor=#9E9E9E;align=left;verticalAlign=top;spacing=10;spacingTop=-4;fillColor=#F3E5F5;" parent="1" vertex="1">
          <mxGeometry x="965" y="471" width="200" height="128" as="geometry" />
        </mxCell>
        <mxCell id="392" value="" style="strokeColor=#dddddd;fillColor=#ffffff;shadow=1;strokeWidth=1;rounded=1;absoluteArcSize=1;arcSize=2;labelPosition=center;verticalLabelPosition=middle;align=center;verticalAlign=bottom;spacingLeft=0;fontColor=#999999;fontSize=12;whiteSpace=wrap;spacingBottom=2;html=1;" parent="1" vertex="1">
          <mxGeometry x="975" y="520" width="70" height="70" as="geometry" />
        </mxCell>
        <mxCell id="393" value="" style="dashed=0;connectable=0;html=1;fillColor=#757575;strokeColor=none;shape=mxgraph.gcp2.report;part=1;" parent="392" vertex="1">
          <mxGeometry x="0.5" width="50" height="50" relative="1" as="geometry">
            <mxPoint x="-25" y="10" as="offset" />
          </mxGeometry>
        </mxCell>
        <mxCell id="394" value="" style="strokeColor=#dddddd;fillColor=#ffffff;shadow=1;strokeWidth=1;rounded=1;absoluteArcSize=1;arcSize=2;labelPosition=center;verticalLabelPosition=middle;align=center;verticalAlign=bottom;spacingLeft=0;fontColor=#999999;fontSize=12;whiteSpace=wrap;spacingBottom=2;html=1;" parent="1" vertex="1">
          <mxGeometry x="1055" y="520" width="70" height="70" as="geometry" />
        </mxCell>
        <mxCell id="395" value="" style="dashed=0;connectable=0;html=1;fillColor=#757575;strokeColor=none;shape=mxgraph.gcp2.users;part=1;" parent="394" vertex="1">
          <mxGeometry x="0.5" width="50" height="31.5" relative="1" as="geometry">
            <mxPoint x="-25" y="19.25" as="offset" />
          </mxGeometry>
        </mxCell>
        <mxCell id="xwxbCeUritOEieoB_8Dk-412" value="" style="shape=image;imageAspect=0;aspect=fixed;verticalLabelPosition=bottom;verticalAlign=top;image=data:image/png,iVBORw0KGgoAAAANSUhEUgAAAGcAAAB1CAYAAABTX/9pAAAYVGlDQ1BJQ0MgUHJvZmlsZQAAWIWVeQVUVF8X77mTzDAM3d0l3SAxdHeDwABDd4dKioSKIKCUCioIIliEiIUgooigAgYiYVAqqKAIyLuEfv/v/6313npnrXPvb/bZZ8fZp/ZcADhTyRERIQg6AELDYqJsjXT5nF1c+bDvAAQQgBEwAwLZJzqCZG1tDuDy5/3fZXkY5obLM6lNWf/b/n8t9L6UaB8AIGsYe/tG+4TC+BoAqEyfiKgYADCqMF0wPiZiE7vDmCkKNhDGEZvYfxtnbmLvbXxii8feVg/GDQBQEcjkKH8AiG0wnS/Oxx+WQ3wBtzGE+QaGwazzMNbyCSD7AsC5C+bZFRoavomdYSzm/Q85/v8l0/uvTDLZ/y/e9mWrUOkHRkeEkBP/P4fj/11CQ2L/6BCBKyEgyth202d43F4Eh5ttYgKM58O8La1gzADjn4G+W/wwRuADYo0dtvkRXD7RevCYARYYy/qS9c1gzAVjw7AQS/MdurdfoKEJjOEZgkgIjDGx3+mbTYk2sNuRWREVbmv1B/tF6ZF2+jaSo7b0bvJ3xQY7kHbkvwigmPyR/z0pwN5p22YkPi7Q0RLGRBizRAfbmW3zIIWSAvQs//BExdpu2i8EY3VKmJHutnykh1+Uoe0Of1Ro9B9/kdkBgSaWO7gsJsDeeEdOgw95y342GLdRwkgOf+RQop3N//jiS9E32PYdOUAJc9jxFzkeEaNru9P3a0SI9Q4/Ck8JMdqkC8CYKzrObqcvSisGnpDb8lGWETHW9tt2oryDyKbW2/agEoA50AP6gA/EwtUbhIMgENg/3zoP/9puMQRkEAX8AQVI7VD+9HDaagmDn3YgCXyCEQVE/+2nu9VKAXEwff0vdfspBfy2WuO2egSDDzAOBWYgBP4du9Ur7K82R/AOpgT+j3Yf2NYQuG62/S+NBFPMdyixf+Ty0f7hxBhg9DHGGEOMOIoDpYXSQJnDTx24yqNUUWp/rP0PP/oDehA9iR5Cj6NfegamR/3LHz5gAcZhDYY7Pnv/02eUCCxVCaWL0oTlw7JRLCgOIIVShDWRUNqwbiWYqrdj+ab3/5b9Xz78Y9R3+HCyOASOFaeDE/t3T6IEUemvlM0x/ecIbdvq/Xdc9f62/Fu/3j9G2hd+m/2bE5mNvIrsQd5F9iI7kK2AD3kb2YbsQ97cxH9n0butWfRHm+2WPcGwnMD/0Ufe0bk5ktGyF2RnZNe222IoCTGbC0wvPCIxKtA/IIaPBO/8FD6TMB/pXXzysvKyAGyeI9vb1DfbrfMBYnnyHxplGoDd8NrADfyHFnQMgPpuAFhz/0MTcQOAHd6XLz/1iY2K26ahNh9ogAe08IpiBzxAEIjB/sgDZaABdIABMAVWwB64AA94lAPg+RwF4sFekAayQB44CopBGTgFzoDz4CK4AlpBB7gL7oNHYAAMgdfw7HkP5sACWAarEARhIRqIEWKHeCFhSBKSh1QhLcgAModsIRfIC/KHwqBYaC+UAeVBhVAZVAXVQZeh69BdqBcahF5CE9AM9BX6hUAiCAgmBDdCBCGDUEWQEGYIe8QehD8iEpGEyEQcQZxAVCMaEC2Iu4hHiCHEOGIOsYQESGokC5IfKYVUReohrZCuSD9kFHI/MhdZgqxGNiLb4Tg/Q44j55ErKAyKEcWHkoJnsDHKAeWDikTtRx1ClaHOo1pQXahnqAnUAuo3mgbNhZZEq6NN0M5of3Q8Ogtdgq5BN6O74dX0Hr2MwWBYMKIYFXg1umCCMMmYQ5hKTBPmDmYQM4VZwmKx7FhJrCbWCkvGxmCzsKXYBuxt7FPse+xPKmoqXip5KkMqV6owqnSqEqp6qltUT6k+Uq3i6HDCOHWcFc4Xl4jLx53FteOe4N7jVvH0eFG8Jt4eH4RPw5/AN+K78aP4b9TU1ALUatQ21IHUqdQnqC9RP6CeoF4hMBAkCHoEd0Is4QihlnCH8JLwjYaGRoRGh8aVJobmCE0dzT2aMZqfREaiNNGE6EtMIZYTW4hPiZ9pcbTCtCRaD9ok2hLaq7RPaOfpcHQidHp0ZLr9dOV01+lG6JboGenl6K3oQ+kP0dfT99JPM2AZRBgMGHwZMhnOMNxjmGJEMgoy6jH6MGYwnmXsZnzPhGESZTJhCmLKY7rI1M+0wMzArMjsyJzAXM58k3mcBckiwmLCEsKSz3KFZZjlFys3K4mVwprD2sj6lPUHGyebDhuFLZetiW2I7Rc7H7sBezB7AXsr+xsOFIcEhw1HPMdJjm6OeU4mTg1OH85cziucr7gQXBJctlzJXGe4+riWuHm4jbgjuEu573HP87Dw6PAE8RTx3OKZ4WXk1eIN5C3ivc07y8fMR+IL4TvB18W3wM/Fb8wfy1/F38+/KiAq4CCQLtAk8EYQL6gq6CdYJNgpuCDEK2QhtFfogtArYZywqnCA8HHhHuEfIqIiTiIHRVpFpkXZRE1Ek0QviI6K0Yhpi0WKVYs9F8eIq4oHi1eKD0ggJJQkAiTKJZ5IIiSVJQMlKyUHd6F3qe0K21W9a0SKIEWSipO6IDUhzSJtLp0u3Sr9WUZIxlWmQKZH5reskmyI7FnZ13IMcqZy6XLtcl/lJeR95MvlnyvQKBgqpCi0KSwqSipSFE8qvlBiVLJQOqjUqbSurKIcpdyoPKMipOKlUqEyosqkaq16SPWBGlpNVy1FrUNtRV1ZPUb9ivoXDSmNYI16jendorspu8/untIU0CRrVmmOa/FpeWmd1hrX5tcma1drT+oI6vjq1Oh8JImTgkgNpM+6srpRus26P/TU9fbp3dFH6hvp5+r3GzAYOBiUGYwZChj6G14wXDBSMko2umOMNjYzLjAeMeE28TGpM1kwVTHdZ9plRjCzMyszmzSXMI8yb7dAWJhaHLMYtRS2DLNstQJWJlbHrN5Yi1pHWt+wwdhY25TbfLCVs91r22PHaOdpV2+3bK9rn2//2kHMIdah05HW0d2xzvGHk75TodO4s4zzPudHLhwugS5trlhXR9ca1yU3A7dit/fuSu5Z7sN7RPck7On14PAI8bjpSetJ9rzqhfZy8qr3WiNbkavJS94m3hXeCz56Psd95nx1fIt8ZyialELKRz9Nv0K/aX9N/2P+MwHaASUB84F6gWWBi0HGQaeCfgRbBdcGb4Q4hTSFUoV6hV4PYwgLDusK5wlPCB+MkIzIihiPVI8sjlyIMouqiYai90S3xTDBF/a+WLHYA7ETcVpx5XE/4x3jrybQJ4Ql9CVKJOYkfkwyTDqXjEr2Se7cy783be/EPtK+qv3Qfu/9nSmCKZkp71ONUs+n4dOC0x6ny6YXpn/PcMpoz+TOTM2cOmB04EIWMSsqa+SgxsFT2ajswOz+HIWc0pzfub65D/Nk80ry1g75HHp4WO7wicMbR/yO9Ocr5588ijkadnS4QLvgfCF9YVLh1DGLYy1FfEW5Rd+LPYt7SxRLTh3HH489Pn7C/ERbqVDp0dK1soCyoXLd8qYKroqcih+VvpVPT+qcbDzFfSrv1K/TgadfVBlVtVSLVJecwZyJO/PhrOPZnnOq5+pqOGryatZrw2rHz9ue76pTqaur56rPv4C4EHthpsG9YeCi/sW2RqnGqiaWprxL4FLspdnLXpeHr5hd6byqerXxmvC1imbG5twWqCWxZaE1oHW8zaVt8Lrp9c52jfbmG9I3ajv4O8pvMt/Mv4W/lXlr43bS7aU7EXfm7/rfner07Hx9z/ne8y6brv5us+4H9w3v3+sh9dx+oPmgo1e99/pD1Yetj5QftfQp9TU/Vnrc3K/c3/JE5UnbgNpA++DuwVtPtZ/efab/7P5zk+ePhiyHBocdhl+MuI+Mv/B9Mf0y5OXiq7hXq69TR9GjuW/o3pSMcY1VvxV/2zSuPH5zQn+ib9Ju8vWUz9Tcu+h3a+8zP9B8KPnI+7FuWn66Y8ZwZmDWbfb9XMTc6nzWJ/pPFZ/FPl/7ovOlb8F54f1i1OLG10Pf2L/Vflf83rlkvTS2HLq8+iP3J/vP8yuqKz2/nH59XI1fw66dWBdfb/9t9nt0I3RjI4IcRd66CiDhivDzA+BrLQA0LgAwDgCAd9vO83YKEr58IOC3I2SAICFVUWxoPIYKK0vlgsvA3yZgaMjEVjo8fQjDQyYl5gpWwBbM3s+pzHWUe45Xhy+ff1AQL6Qm7CISLBoq5i6uK8EtsSh5f1epVLC0pgyNzFvZJrlUeRsFfoVPiteVDijbqHCpvFdtVEtQJ2ngNZ7trtD01dql9VW7VWcvSVeXoPtW75Z+vUGlYYHRfmOyibYpm+miWZ95o0WlZZVVh/WULdqO3Z7Dgc4R6bjmtOoCXHFuRHeaPag9Sx6TngNed8hXvWt8Sn1zKYl+/v72AbqBikESwfwh7KG0Yciw7+GTEQORN6LORh+JSYnNimtOQCVSku7sBftE9qunmKS6pcWmH8kozkw+oHhgKiv/oHW2cA51LshDHKI/LHZEK9/yqFOBa6HrMecix2L7EpvjlifMSo3KdMu1KtQqFU5KnZI4LVtlVp1xZvycSU1D7Vwdfb3wBbkGjYv6jRZNTpc8Lwdcibgaf21/c3rLgdbstrzr+e3FNyo6am5eu9V9e+TO+N3hzqZ7fl1sXQ+6S+7H9/g92NPr9NDmkVmf0WPjfvsnkQOnB18+o34uM6Q3bDJi8EL1pfAr4quV19OjL97cHTvzNmPcf8Jh0nLK4p3Ve6sPph/Vplmnx2dyZxVnx+fOzyd9Mv5M9bnui9GXqYUziwlfPb5ZfbdYClru/HnwV+u6/sbGTvzlkCjkDGocPYVZoELilPEB1BWEcaIEbTzdfQZ2xkSm5yzyrOlsbziUOLO4Bng4eJ35Cvg7BEYFl4SWhWdFHoueEYsS15KgkngueWpXkJSS1G/p+zJHZJ3keOU+yjcqxClqKkFK3cq5KlaqjKrDaqXqbhrcGqPwLHDXYtca0T6u40YSIa3qDuld1j9kQDHcbURv9MG4w6TYNM6MYu5tEWAZbhVq7W1jZathJ2HP6UB0RDguO310Hna559roVu6euyfJI9DT2UufLOPN5gP5zPoOUbr8mv1rAkoCM4PCg11CdEJFw2jgmTARMRb5PZo/xjO2NO5u/IuEqcT5pJW91Pt49oul8KViUt+mNafnZ0RlehxwyHI+GJidkVOZezGv+VDL4WtHLudfPFpXcK7w9LHyouLi/JKc4+knEkvDy/zLAytSK2+fEj99vlr0TOHZZ+dWaonnOeoE6yXgeaByUatRv8niksvlkCtZV89cu9U82DLWOt32rR15g7VD8qbGLZ3bKnf47yLuTnb23Gvuqu0uv3+058CDpN6ohzGPcvo6+lme7Bt485TjmfZz+yG/4dSRcy+evPz+mmFU6o35WMTb4+M3Jp5Ojk1Nvpv7gIajnzYzOEc/L/tJ6bPIF9ovPxc+LI58ffjt+veqpZRlxx+iP5Z/dqwk/dJYJazpr8/sxF8amkNUIj1Q4mgsehEzg52lmsQtUuMJwjQkoittGl0D/SDDBpMwswFLEOsBtlPs1zi6OR9w3ee+wVPFm8Cny/eL/6yAmcCcYLaQqFCnsIfwikiRqKzoQzF/cax4rYSxxEfJrF1iu7qlfKSBdKXMbpkXsrHw7aZJ3lx+WiFDkUexTclWaV75gAqvSit8a5lWS1FnUb+gQdJ4uttn92fNZC2sVrm2ovawThKJh9Sma6X7Ui9Ab0O/2sDaEGd4z2ivsaLxrEm1qbsZm9mwebGFnSWtZa9VhrWG9XebJttgO1G7d/ZVDnsc2R2fO+U7GztvuDS7hrgJub1xL9ljuWfZo8hT2POaF8nrFTnBW8D7BbyPBFCM/FT81QJMAslBocHkEO1QutDRsHPhoRFKEWuR96Jyo61jmGNex56K840Xif+QcDLRIHE0KSSZKfnZ3hv7bu3vSrmXej2tLr0kIyMz/IBblsFBiWx09vOc0lzXPKG81UPjhx8fuZ5/+uj+ArdC9WMcx1aKhouvlBw/fvhEYWlV2dXy+xUvKmdPrp6mqeKrVjhjfNb9XHjN/tqc84fqUuvJF1QaiA1fL35qXLlEuMxzRf6q9bXk5mstP9vUrke0l9641NF288at3ttLd406r3fZdS/1lPQqPHzed7jfa8DkKem57nDIS+Lo3GT/7NL3lc34b//ft1kwygAcS4Mz1CwAHLQBKOiC88whOO/EA2BNA4C9GkCI+AEEoQ9A6hN/zw8IPm0wgBrQAzbAC0SBLFCHs2Qr4Ar8QDScXeaDk6AR3AJPwAT4DmeOXJAcZAR5QvFQAdQAPYA+IDAIMYQ5IhpRCed5G3BeF4e8jvyNMkIdQ02iFdDZ6LcYdUwpZhXOsB5SqVDV4jhxBXhqfA41nvoogYNQS6NI00HUJLbTqtLeoDOme00fw0DHcJFRn3GQyZ5pkNmK+SmLJ8tP1lI2TbYx9n0cnBztnB5cOK4O7jgeRZ5vvFf4oviV+NcEegRLhAKEd4sQRcZFr4pli3tLkCRFdhF3rUp9ln4nMyTbLJcsLyc/ppCtqKT4RalNuVAlUdVXzVxdVoN1N1FTWqtcR5J0WLdX74sBlSGzEbsxl4mQqaKZpXmkxQnLLquvNoK2TnZH7HscUU76zlkufW4s7t576j3eeWHI9N4Y7yWf976jlFl/2gCzwOKgjyG7Q4vCPkeYRtZHE2IiY1/FGya0JUkl1+zj21+eypJWkIHPTDuwdDAoey4371DokeYC+mMcRZ9K6k54lrGUD1QePmV0eqk6/yzTueya5fPBdV8vHL1o0ER/afHKh2vTLXNtH9unOhZvs97Vu+fR7dVj16v9SOax+BPlwbBnP0dQr3Cjp94yTtx6T5zeO0f61PRl9avyd8Nl/I/DPx+uTP96v/py7dr60d/eG7Jb+8dm/LGAABgAO+AHEkABaAJjYA+8QChIBjmgFNSB6+AReAMWIDTEAcluRT8RKoIuQf3QJwQtQgHhishAXEG8R/IiPZFnkfMoZVQmaggtjk5Dj8KxL8cCbAB2iMqAqg0ng6vHi+MbqBWpbxOsCVM0CUQcsZiWn/YSnL++po9nYGFoZXRk/MS0jxnPfIJFiuUhazgbK9sd9kAOJo47nOFcQlyj3KU8zrxsvC/5Kvl9BWQFgeBzoQvCmSLuoopwLjcr3idxFT7F8qUypPfKxMj6yOnIE+T7FXIVzZRYlRaVX6r0qLaoVasf0kjaHaeZo9Wm/YOkoOurl6dfY9BieMPohvFNk17TCXOEhYSlo9UB61abeTshe0+HSscxZwGXINcWd+weJ48yz26vQXKnd51Ptm8gxdbP2N8lID3wTjBNiHdoRzhHRFLkm2jdmLo42viIhEdJ/Mlxewf2K6WcTeNML8rEH0jOms8m50zmJR2WzUccfVN4uSiuRPH419LL5bGV6id/na6plj9TefZjjWhtwPlL9awXKi5qNn66VHpF7Wp/M7llta263aYD3Ky7bX5nsfNUl/d99Qf8D1GPHj+Oe4IZyH1KeFY95Dli8TLkde2bj+O8k9bv0j7cmmGdO/pZZOHxt6LlQysmq/JrJ9ff/V7ciT8K4AAdvPr5gSRQBnrAGnjAsd8Hr/wqcA08AGPwuidAIpAOtAdKhsqhm9AEAgdHnYwoRgwgmZEU5E0UFyoVNYt2QT/G6GFuYjWxd6nMqd7govG0+EvUjgQkoZUmkihH/EnbTVdKH8vgwmjCZMpsw2LKqsImzq7E4cmZyBXD7c1jz2vJZ8FvIWAuaCFkK+wpEi16WKxe/IHEzC4aKRVpP5ky2WF5DgVfxSalVRVr1cfqObtdtNDaR3XWdM30MuAIthp2GN0y7jdZNTMzb7GUtmqwkbZtsddzGHYKdcG7Nrg7etB7UXt7+rpR3vlrBOQFfgi2DekLswh/GukWNR2THMcTP5Z4P/nOvsoUh9Rf6VWZjlm8BxdybuYdOuyXb1TAXvioyK94+XhGKX1ZdYVy5eNTflVQdcVZ1XNDtbF1nPUPGlIajS7JXDG8ltJS3Zbf7tLBenPkdvldl3vYrnP3FXtu9Bo8HOlL6JcZQA4uPJseGhwpeCn6qvL17zcGY7lvH03QTjpMnX4380HuY/D06ZkHs7Pz6E9cn2W/6C84LZK/+n6z/i7wfWnp8DLXcv0PtR9lP1Z+Ov1sWWFZiVppWVn9pfMr81fvKnHVbvX46sAa1ZrOWsLa5bWZdf51l/XC9Yfr67/lfvv+Pv770e/fG3IblI0TG32b8Y/2U5DfOj4ggi4A6LGNjW8iAGALAVgv2NhYrd7YWD8DJxujANwJ2f6GtHXW0AFQsbCJHrX9Sv33t5z/A3xU2cXAb6+/AAABnWlUWHRYTUw6Y29tLmFkb2JlLnhtcAAAAAAAPHg6eG1wbWV0YSB4bWxuczp4PSJhZG9iZTpuczptZXRhLyIgeDp4bXB0az0iWE1QIENvcmUgNS40LjAiPgogICA8cmRmOlJERiB4bWxuczpyZGY9Imh0dHA6Ly93d3cudzMub3JnLzE5OTkvMDIvMjItcmRmLXN5bnRheC1ucyMiPgogICAgICA8cmRmOkRlc2NyaXB0aW9uIHJkZjphYm91dD0iIgogICAgICAgICAgICB4bWxuczpleGlmPSJodHRwOi8vbnMuYWRvYmUuY29tL2V4aWYvMS4wLyI+CiAgICAgICAgIDxleGlmOlBpeGVsWERpbWVuc2lvbj4xMDM8L2V4aWY6UGl4ZWxYRGltZW5zaW9uPgogICAgICAgICA8ZXhpZjpQaXhlbFlEaW1lbnNpb24+MTE3PC9leGlmOlBpeGVsWURpbWVuc2lvbj4KICAgICAgPC9yZGY6RGVzY3JpcHRpb24+CiAgIDwvcmRmOlJERj4KPC94OnhtcG1ldGE+Cl8rrJUAABwXSURBVHgB7d1lrCTFFgfwWtzddXF398XdXRa3BAJf+MQHeHxBQkJYJEHDsuji7rLY4u6+uLtrv/5VXi2deXfsTs9sL5lK5s5MT3d19fmf8z9S1X2HZHkL/VZJCUxSyVH1BxUl0AenworQB6cPToUlUOGh9S2nwuBMVuGxxaEJJn///ffw22+/hckmmyxMNdVUYZJJ2tepv/76K/z666/Buz4mn3zyMGTIkEpffqXB+fvvv8P3338fXnrppfDaa6+FBRZYIKy22mph5plnbluoX3/9dRg7dmz48ssvwworrBCWXHLJMO2001YaoMqCAxgCfeihh8JVV10V3n777bDhhhuGRRZZJMw000xtCZX1ffbZZ+G2224LTz/9dFh++eXDHnvsEdZYY40wwwwztNVX21rRwQGVBIcwv/322/DAAw+EUaNGhWeffTYsuOCCEZjpppsuUhNKQm+NqEk/QPY+44wzhkUXXTQ89dRT4d577w2//PJLFNtaa60V9Nmonw7k29GhlQSH4Ahx9OjR4fnnnw+LLbZY2HPPPcOwYcOi/3n11VfD9NNPH+aaa67oP+pJQD+ffPJJBGKWWWYJ2267bfQ1V155ZXjsscfisfpZeeWVw5RTTlmvmwm2fdL/5G2CnX2AE3PY/MsVV1wRKY2fGT58eNh4443Djz/+GK6//voI2ldffRUWWmihaBEDaT1reffdd8PIkSPDjTfeGH766adoOYsvvngE5a233gpegozBUOUAQy99U+Ush9D5mYcffjhax3bbbRc22GCDSHN8zy233BKth0BRVqMG6G+++SY8+eSTEQjg7rjjjmGzzTaL2ynAfffdF5Zeeukw66yzRl/WqL9e/1Ypy/nzzz8jjQHh/fffjzS2yy67hEknnTRqP6sRUm+++eZhhx12CPPPP3/4448/guPswwf5zEqEzVNPPXW0LKCgwnHjxkX/sswyy4Q555wzfPjhh+H111+PPglAs80226DC9G6BVinLEQQ899xzkdbmmWeeGJ3xFSzp9ttvj8BsvfXWMdKab775wssvvxxffM/aa68dhfvpp59Gq/vhhx9iyLzccstFfwI4VsLy0KFwGlUC7YUXXggvvvhiDNUFDlVplQGHj/j444+joCSdyy67bFhqqaXCF198Ee6///4YCq+++uqRluadd97o0AUMb7zxRgRG0CD/+eijj8Ktt94aQQOAkFnovPPOOwfAsRT92T/lO8JrEaHIrUrgtJ9qd0mt0BHBvvnmm2GaaaaJ4KAlwYGIjeBp+tChQ6PgL7/88vD4449HmpJQ+h21zT777BFUn4XiIjN0BmjHTzHFFDHXkTfJl1gWq3Kezz//PIbpXbrEtrutDDg///xztByWQnuBwG+gHRQlR2EB/Ic8BQ0JCg488MCw5ZZbxhBZMCE05vT33Xff6FeE5GPGjIl+Rcgs+lMleOWVV+I2fSjnsCphN59WlVYZcDhxmsvBi5xYgG20Xri78MILR9B8F33JSwQG6623XsxjrrnmmjBixIhw8803R0tgJRtttFEUNgsjfA5fP6I4YbZzCQxYkJxIFYFCVKVVxucQijqaRvvVvViREg4qIkShsyiOEAUBK620UtR+wYIIj88ifEIHHEu58847I12KzPgxx2msx36qA84HvO+++y6G6XGHCvypjOXQZoGAhBIY/ADhoRmfUY99UBz/RKj8DOtCUXwIWuKzUKFj/c5/6TcBz485h371xyqdT7OtWe7US8wqAw4AOHFRG6F5953wfAaIfdCZd4JERb6zKkCwNpTou2P9DhifgasBTdOvfoDhfGnbQNWG+OME+FMZWiNk1qBx+miOQAUHLIKzJ1BhNB+BloTR8p0tttgiAvjee++FJZZYIvoagAqbWYxj5p577ti34/ymD3M6civWByj0ZltVWmXAQT8pQ1dy4Wt8J1iRGcEDTBTHdwiT77777vi7jP+QQw6JlsJ6CFjQIKpjFfIZ/QBiXB5QsA7VBfsBy3bUJgihJFVplaE1QlUVoNHA+eCDDyJNyWEIjpV4EaB5HcIGwEUXXRSeeOKJSGdyFv1IMkfmBU++SLJpf+DzRaI0FiLvQXdAZ6nokHUl+qsCQJUBBwAEzjIIS1JI6wmRgEVTrAVwJsl22mmnuL9yT6og8EtAveeee+LxjlObkx9JcMfk+Q6aU0dTnZZbKQE5jzyKr0KdVWmVGQmqYTm0n8DVu2g1oa2//vqxqqzGJok0LyPxVHdTdlErYzH8Bh8FDH0BcZVVVokhsllQFsbyhg0bFi1FgmoKnLWgPtbTDwjqqCYfI3dhIejHtIEZ0HXWWSeGyHfccUeQbHLoW221Vdhkk03CmmuuGavPjkVTfIl6GisCGIsxn3PTTTfF4ySmanT8DEtikYBZccUVI7B1hjZBNldqyoBwOWnBgCCAs+YH+J055pgjbuc33nnnnajt6IklWQfgWM3xrIfvkqyqrZlqEFZvuummYdddd42/qVDfcMMN8TjlHpUG/VSpVYbWCAWlAMPkGmeOdghQDoPu1Ms4dsCpHjQrtQAEwIRugo2fQnfKOayJ/2JJgEGRVWuVAodwhLJ8Br8CgGeeeWZ8BAUgITOnz5L4j0Y+AtC77757zIOUdURp/M5ll10WAwYh+fbbbx8DDhZXtTYk5+/K3QIia+crWI2pAX7BerW99toranly/gTaCBz98D3e1c1EcYARBAg09ttvvxhYNAN5QoFWOcshCFEXrTfrSXeuvfbaSHPoiFWhoEagJGHqR4iuD/Qm2uOvhOcsSkBRtQgtjd17JcGJA8vzDc7eWgECpO0CAz5nMA2lJWBZoVlPFpMCicH02e1jKklrxYtOlCT0VVEG1GD8g0Ip61EI1Yc6Hsuqcqs8OFUWXrfHVm3V6fbVV7z/PjgVBqgPTh+cCkugwkPrW04fnApLoMJD61tOhcHpSYWgW+W7Vko4FZZ906F1DRwZuZK8lS2WI5UNUKqbmbdRmqnS9HJTqbe4Q1fAsQZAkfK6666L080A6gY4yjCW3ZpesOa5SitnWpR/w91KB4eVWAJ7yimnxLsD1Ma6RT/6dm+n6YXDDz88Ltr4N1lQ6eBYFzYyX5ZkgQa6sZpGkbFsgABj0s2Cw6uvvjpYu2YdtFnTss/VUL27+GPp4JhCBpDqr2nhI488Mi66KFtgwDEZd/rpp8f1aCzIQhBT0v8W6yk9lBYEmLvnsM02WotGm1kRn0Bwnb7SMl1g8DX6s87NjCnQ/i2tdMspOv702bulTu5QMy/j+2AsKfVnkYYlVNYRJNo0w+n2EIs+mk1ftwqe8yWwKdtgxtzquQbar3RwBjqJsPqCCy6IT+OwIL3TZgr7hBNOGL84w7Q1KmU9llV14uOAYSWoiFOU6ZYTK0LTghLW3yuQegIObXb/jJlI2ojizO2320SChMVCWKGVoO4qsIyWZVrThtpQabuznMYFEEGGJVlW6VibbQWQRSJC9v333z8u5R3M2Nu9Vvv3BBwXTtu8zNtb2MdXtKOB9gWK9WaevJGAsOQJGARGAYBDmO1MZbMWILhDziJEy7ES/SZaY0XWHvCj/ypwilqDgiSN6667btvaTYBuH/TiYwBh0QeBidLcdmh9NUEKGloBn+IIx4X/l156abRAiz4EMX5jqWhZa6W/4rV2+rn0aK2VAaEcmt3ui9WhMSUbQLAUVAcca6WB4oYpfi1pfLPxoDL3k1rPhhqBbNnuYYcdFm8dAZLx8mMAb5cum52/0e8TBJxGA2r0GzDd1qFsw4/xCQIAt3PwOwSXQmpOvFljGfyLOxAEFEA/4IADwnHHHRcT2tS/8woIOgk0mo1loN8nKnBcAMtRCQAEv4OShuZVCGvcaDYhsypJcLMG4AcffHD882/cueAOBaC554dlWo6Fgq02VYXolb8x9okOHIGE+3EsLgSEuhoBsigU5M4C/oivaEZtfBeAJc4szwJ6faNGFMfXWOR+7LHHht122y2uQu3lIsSJDhw+IT2CS2ju1nZ+g9/hk/ggdOS3VsBJD6YAipt/CR/gAPPZKlERIQXopb+ZKC1HxJTu1+FXgCMAAA66I1Caj+6a+R2L25Wa0JiAQv7lmFSCYp2ssdXIrxmNtvv7BLGcTkNS1KaEw1Env+OONhruDgT5kGQyCb6eUPglORFwAKA/n9GZ7Wp2fAyL6XTM9cbQaHtPktDiANCO/IS/GCxNoCsarZQCBH25/xPdiar4C4kqy0CD9QQLCC/NPmm/tC2NO21P33v13nNwOOFTTz01CreTiwaAGliiNlQkKACOKIvf4U9Y2GCVoFcg1DtPT8DhBzhUFCF8dTtHUVPrDa7RdtbjpR+lFhQ2NA+pUykn+R13w6GribH1BByOVeFQwijUraWNTgTHx6A0Dt2Nuun2QgEBuhPJ9bKS3Mm11B7bE3A4VsVON8eiojIbwavXUQD0lSI5lQLUJpLjn1jvxNZ6Ag6hoDV5CFoTDXkJDlK0hJ4IFwWhP9GTl8+NfFMtPfI7EkrgCLMVS+UwgwWn0bm7DXZXwXFhhM8neKwJmiEwkZTqMYctogIS4aEo9JTCYjUzgk05SDOgCMtDJRxPGZxHQql/x7bSasFu5Zhu7dM1cFykEopHpchF3CzrOTM0mdWIsoq+x+ekpYDyQlcA8lhiZRR1NUA18iF+l5DyP/ybx6/wQ4qlqX/C9NlY5DrOraKtJmc7hUnjQ4vyJspVPL4WEFaPWtNaiUb71h5b73vptx2ajj755JOjZSgUukjOmWPWCJZWoywX4zOfJPICGp8k8vJCgbajOtbg6U+e0J6eU1MvCrMq58QTT4yKYUrbsc5XbIQHPBZMiVAhq7OfMN2Y7TM0jwBVHuqdK/XpOtyl7Q5t6xso1mCpNPVZquUQLhBQGVBYiuaC5R+E5MEMQPOZNqMy4NBegNBaghEKC7nlLDScwAiSBbrD2sMd0t3VtVrK2gia39EXEGqbYwBvnD6rxcmVNNu9tHTe+KXOn3T+MfmzdFS5Pcgi3QVe55CWNpcGDsFagusBdGmtAJ6ndZYwCaVN8/oOLFqFClxYujgAJYHxE4AiYBfsWTWiLz7rrLPOio9Y8dhifZuH0VdqgPH0QpYHmCTo9Hvx3TlTS+PwPW0vbkv7DfRuvGjR2oaR+ayqginl66SVQmsuhEafdNJJ8UlPLEj4ah5ECE2AfAGwCMrvLia9Ox5YfvdCfd4Jxn6A57c8+cmTozh61ulJT7QUECwz0Yj++JAUbCRBDyQolqMlRUn76N/5a7en32vfWeiZZ54Z1yE4zj+xMK5OWmmWY6UnCiII3Ov/3Xgak0kwgk5azLmmKApNsTIAoDf78hFpzobA1ca8Vl111RgQeLjDJZdcEpWBsz/ttNNi32iO3wAQ4Zi11GcjYDoRXO2xEmzBBbBVKfjTTltp4HiG87Bhw6LP8XTA9CQmoJj8Mh3s2TMEyvxtBwpLIkAC5XsIlzMVYZn8EgSkdQPoy9Of0JbHR6aVOGeffXY8FkAsNFGcPr263VgZ5eSfXI/okpJ12koBhwA8EZDm+4zSRDfCUA+2s9CcP2IlNAsINIt2J0ECyG8oTNUagJ7hCQCrdbbZZpvxAYDq89FHHx2PRx8s9sILL4y+x+IMYXQvQEnCd12UTlGXn6GonfobfZcCjo5QlwqwxiJQlyc+ebKg5FOTA4jSZPHCYTOPKcSlcXyE56x50UJJqoiN5flPHQcddFD0YyyIIhx88MGRSgDEEV988cWxCqHWJrTtRaNUxitw4ecEAqLFMs5fGjgEQVsBw8TPOOOMcNddd8ViJ59BmzzC3ipNoLAcFlS0HAA5XkgrDHefz5g8PAUUSuR0LVliRUpBgPZYLiD6HwaiOoLB+WgxBQjdBElQQzH4T9cPnKF5btQsL2ppTDnypbVcsFleEcj23nvvLPcbWW4VWU5B2fHHH5/lF5DllpHZJweh4Tlzestyn5TlYXCWU2KWBxZZHhxkeRSX5RefnX/++VlOfZn99Jev1Mxyf5fl2prluU+WLw7M8pJR0/M0HESLP+aKk+UWneVUnuWViSyn1ywPDko5N2dcSiPwPA+JA835NgoqD6GjoHKNj0Js90T6zCsGWc7n2RFHHJHlFhcBz60wy6ksyy0sCiHP8LM8jM/yOlyW02uWP24yKgngutmMLw/vs5wN4vXmvjHLfWyW+81STvtP5taSndXfSQnEqklUpA6Fxo455phIQUJiFNZuQxO4W1XhqKOOijdjieRQHv+ibodWhMweZcyPoRNP1XVnHR+QS6nd07a8v/6dx1Q5nyvvEkmWQmn5KEoBR5Qlg8f7/ALOlRwKhfmb5FeKV51rdQRRaUYWL08QqeXaWNwtfgas3Ie/MScEMAD491+qzo6RWzmfENY2d7qJ+gbq7/9OMMgN/IyARVQqQBFFllFTS8NpX53TkYV3DlmxUXlF9OURjYQ4UEgLFFGZMgxHKpKT83DwLs5LwACAIqicO2ev75znxy+jFZlJPlmPBNWdAuk2Dn3T5G4EBkBnNcJ4ySfrFoSwoLJax+AYJC0W6jJzyaeojAYXhWvAKEgZxi3wyjCqBYBBPQQITJUAqyv1A7CiYFmQaM+9MwRPMMpG6IRggOcl4RV++11/jaYYBitIuQ1aZaXYQSVa9FgWpRlXx+CoQhOQBIzWAEZGX+tjWAyhyeatQ+ajWJncBwC0D7UBTUVaUdN/KJQ7FQGyP6sUNqPERx55JD6dnWCAq1KtSgA8lmwfYXutogwWFIpkWsN/IHFuE4kKuizH+cs6TyngoBC8KwigtSoFKgS1jRafe+65MWDgo+zHOvgKFMY/sAgXnPaVbCrJeE8Zv3craigAWkRxEl4Ccl4WJDu3Xb6lQmE2tQhw7dja+c7S9cu/eqcsfJ3xsNAyW8eWQ6AAQm+iJY6xVhAcPSojKNRG4Iceemic10m+RX1Kcsl35XlMFLj7ZlQT/O+BIl0AwXagsVjg0GDfTUkkDTY2QLPQBG6nwkuBDAp3HvM2xj0QjXd6ro7B4WtovYtHQQPdw8LPiOZEcizGY+8JvFZojnULhihIkCHiUrNiXQBJAkYdaZUNcOyLJikI/k9UiX5sKwJLYLZREhaMplAwSvZuG0Wxj0bRbHduwKTKs6gM7apQCGJqryUe3OGfjsEhGEJwAfKZgUrlKRdw4ajMTOhAF0MAggDzP8BEl6iD8y1Sm2u2X1IEoKNVgmaJqTTkHJSANRtfapw4SuSPbEeFwAaQvhRd07Q66xA9ujbWmWZXKQiFAZLjkuKkc5Tx/s+IB9kbbaJl+JYADbTYCIwQAOg3gqLZ9S7Gdvu4cI2wWIV+io01JOcLmBT1GYew2u8Eu88++8R5/eQP0JHpBkGHfThyd7OhSVVwLCDUT2A779A8bzMNwEJYsyo7KhW8UDQAOVe9ayqOu53PHYOTTmZg9QZXK9h0TL13Qk99ObbZ8cV9AI865VFoVvDgHRD2Gzt2bKRKCsNiVLo5cwmt2w8pg/1YpXf+0nQH0NzdNiyfs0JtKuHoWtQmEAJSrWLWu75Wt3cMDlogTDxN21hSsRGy0BbduCgXT3v5hgRAcX8CQSu0V5NgJvoq7lf0CwBJNGk8VujIOxynQp0ojXXJyQjVmP2vBEIFikAEYJJWlWVUZiyivhQVjho1Klol2gU+y2FJQntAVw4cYSvBoy3+h6bVNnRAe13oo48+Gu9WdlyimuL+eN0+QOQ7HGvfWiCVTJyTAEVKCWz72R/FAsArNX0mH2Ztm+oCH2JRihKS/2KF4vgpNKVREtahlmfeBogm+oAPNAGJWp/qBGWojVTTuQfz/s/IB3N0fozsnHPWio40bvjfHwK22MN+orvRo0fHCwOEqIlFETTqcPE0UkJKAAqotXwOEAkmZdA466J1AShZ9P+GEN+E/AByPr7GMfyMaoIQXGXCTCorMFYvn027W6wBdFUBgPKLrBJTjMsTXsoi4CmzdUxrtM1AlWJEVzRJkTJRicGiHY/3clG00OwoIVmAR4NRkotDEarahMUaCAWw/EWxoU/gmJQjYEkmAItWUtw/fQYmS7AfwfosbEezqArF1fZjX7RMUUz4US65kwAi7WvsKZRP5yrjvWNwhuaRjIti4iIYjyZhTbQsNZpsnzStjLaUcDhadIQK0CGh02qCE2WZBqilNFZDCQDN2uRAHHKjCDCNwzloOoGL6BzvJdp0Hn0MBHCiymSdQHUMpfEbX2bcxlZm6xgcF0TrxuTTyQRmalpxEucX+Zd/sR0YMv+UlKIyLQlMGYbFsCogFfuwHy13LopAGCwX9dRal31rm3305zjC9D0JGEgotp6A/Z4A4GOBkpJYgQCmsK3M1jE4hMqfiHBQBA7nYEU9Iq3igDl4Ya7frABFEWiQNqMIVsBJEzbQa4ERoSnJABZFoVPnFmwMpPG1gmIdtJ9QHQ9YvobioEkBCyusFTRg5EUUCZjOy3IoineKyBKL11p77sF87xgcA6Lhwte0coZluEgV6kQFaXAEQZgSN8JJ2ggI4LnIor9KxxEC4QkmVByAYQ2bgKFVwahcp1lZYDin45WI+BG5jt9RMOvQUBb65QsFPHwkJQIusIxD2O16apUpjX2w7x2D48SEiYb4G4NGb+edd14UmnJNrfAA6uKTAJoNnqYruXiqE6fM+QLWejZW2IrVOAclIljCpkjyHfM9PgPGS6lIlZl1aEBkqRTCePlBjGCaxJh8FrQIGioJjoswuOHDh8coTFKn9G+wKEvpQzlmMIOnuSxGRs4iRXloT7aOIlPyaQzNGitGg8aGHs2a6ktlGXUReJo4ZOGaIMKLr1RNF2oDzNwUWgMkS6tVwGZjaeX30v7DLmtg2kJg5i6nIFSZNEriUwiSlTXT9OSw5UG03DyQ/AetoBATcQRFa9sBPI1RJQCNeaFV/hLQBEzgLBMgfgOS8o4cyNQAZkh5mrHky8DGJ6D6L7OVcpdBcUA0Xb5yzjnnRDpQ3WVVMmiJHI5Pt4Gk6MlFAZDDZ2lCaoITbsuLOGOCouX7549ylDMRjOPbbc4jox8xYkSkMf2iXn3yJ2hNJAhASmSschoBinTBv1JG3/yjqQ+v2ryu3THV2790cJwIQDhaLUpojZtpuGhJoACg5JxFOqwJrRAMzSQ8ZRbWBygWJwmkpYIA1jlQ0FDvImu3A4QC8Yv8iXPzXeiXFbHI5A/9xmLRmEjUtaA4d1AABqW1Q621Y2n0vSvgOCEBuBAOnLYRtoweZdE6F0QA3mmo/VGJXAO1sCCUAkSFRTRmphU9tkNl9S7euZRiPNMzLfU1DhZC+MZlrMBBc16+CxSMBTjozjWUTWdpzF0DxwlcjGxaOSY5W1aBMtAdAFKzL+EAjuMemlceRFJuAVFxYC2SvTIFQRHkWRaLsHBgsVzAoVjnYqEAQG8SZNSc8qOyx5Nkkd67Ck46iQtFTy5coiqvkICyrJSVEwSNRROcs5BX6IsKk3Wl/sp854NYhbEIqY1LiI1iNaCYE0KrLEWORoHKsN5m19ETcJoNov/7wBLoeMpg4G77W8uQQB+cMqTYpT764HRJsGV02wenDCl2qY8+OF0SbBnd9sEpQ4pd6qMPTpcEW0a3fXDKkGKX+vgvbL5CBjBM224AAAAASUVORK5CYII=;" parent="1" vertex="1">
          <mxGeometry x="103.75" y="215.09999999999997" width="53" height="60.2" as="geometry" />
        </mxCell>
        <mxCell id="xwxbCeUritOEieoB_8Dk-413" value="" style="shape=mxgraph.gcp2.doubleRect;strokeColor=#dddddd;shadow=1;strokeWidth=1;" parent="1" vertex="1">
          <mxGeometry x="225.5" y="222" width="169.5" height="68" as="geometry" />
        </mxCell>
        <mxCell id="xwxbCeUritOEieoB_8Dk-414" value="&lt;font color=&quot;#000000&quot;&gt;Device Registration&lt;br&gt;and Management&lt;br&gt;&lt;/font&gt;Cloud IoT Core" style="dashed=0;connectable=0;html=1;fillColor=#5184F3;strokeColor=none;shape=mxgraph.gcp2.hexIcon;prIcon=cloud_iot_core;part=1;labelPosition=right;verticalLabelPosition=middle;align=left;verticalAlign=middle;spacingLeft=5;fontColor=#999999;fontSize=12;" parent="xwxbCeUritOEieoB_8Dk-413" vertex="1">
          <mxGeometry y="0.5" width="44" height="39" relative="1" as="geometry">
            <mxPoint x="5" y="-19.5" as="offset" />
          </mxGeometry>
        </mxCell>
        <mxCell id="xwxbCeUritOEieoB_8Dk-425" value="" style="edgeStyle=orthogonalEdgeStyle;fontSize=12;html=1;endArrow=block;endFill=1;rounded=0;strokeWidth=2;endSize=4;startSize=4;dashed=0;strokeColor=#4284F3;entryX=0;entryY=0.5;entryDx=0;entryDy=0;startArrow=block;startFill=1;" parent="xwxbCeUritOEieoB_8Dk-413" target="361" edge="1">
          <mxGeometry width="100" relative="1" as="geometry">
            <mxPoint x="169.5" y="38" as="sourcePoint" />
            <mxPoint x="229.5" y="38" as="targetPoint" />
          </mxGeometry>
        </mxCell>
        <mxCell id="xwxbCeUritOEieoB_8Dk-418" value="" style="edgeStyle=orthogonalEdgeStyle;fontSize=12;html=1;endArrow=blockThin;endFill=1;rounded=0;strokeWidth=2;endSize=4;startSize=4;dashed=0;strokeColor=#4284F3;entryX=0.003;entryY=0.412;entryDx=0;entryDy=0;entryPerimeter=0;startArrow=blockThin;startFill=1;" parent="1" target="xwxbCeUritOEieoB_8Dk-413" edge="1">
          <mxGeometry width="100" relative="1" as="geometry">
            <mxPoint x="175" y="250" as="sourcePoint" />
            <mxPoint x="275" y="250" as="targetPoint" />
          </mxGeometry>
        </mxCell>
        <mxCell id="xwxbCeUritOEieoB_8Dk-426" value="" style="strokeColor=#dddddd;shadow=1;strokeWidth=1;rounded=1;absoluteArcSize=1;arcSize=2;" parent="1" vertex="1">
          <mxGeometry x="295" y="405" width="200" height="75" as="geometry" />
        </mxCell>
        <mxCell id="xwxbCeUritOEieoB_8Dk-427" value="&lt;font color=&quot;#000000&quot;&gt;Use ML to create models &lt;br&gt;and run them locally on &lt;br&gt;the vehicle&lt;/font&gt;&lt;br&gt;Cloud Machine Learning" style="dashed=0;connectable=0;html=1;fillColor=#5184F3;strokeColor=none;shape=mxgraph.gcp2.hexIcon;prIcon=cloud_machine_learning;part=1;labelPosition=right;verticalLabelPosition=middle;align=left;verticalAlign=middle;spacingLeft=5;fontColor=#999999;fontSize=12;" parent="xwxbCeUritOEieoB_8Dk-426" vertex="1">
          <mxGeometry y="0.5" width="44" height="39" relative="1" as="geometry">
            <mxPoint x="5" y="-19.5" as="offset" />
          </mxGeometry>
        </mxCell>
        <mxCell id="xwxbCeUritOEieoB_8Dk-430" value="" style="strokeColor=#dddddd;shadow=1;strokeWidth=1;rounded=1;absoluteArcSize=1;arcSize=2;" parent="1" vertex="1">
          <mxGeometry x="491.75" y="560" width="151.5" height="60" as="geometry" />
        </mxCell>
        <mxCell id="xwxbCeUritOEieoB_8Dk-431" value="&lt;font color=&quot;#000000&quot;&gt;Data Exploration&lt;/font&gt;&lt;br&gt;Cloud Datalab" style="dashed=0;connectable=0;html=1;fillColor=#5184F3;strokeColor=none;shape=mxgraph.gcp2.hexIcon;prIcon=cloud_datalab;part=1;labelPosition=right;verticalLabelPosition=middle;align=left;verticalAlign=middle;spacingLeft=5;fontColor=#999999;fontSize=12;" parent="xwxbCeUritOEieoB_8Dk-430" vertex="1">
          <mxGeometry y="0.5" width="44" height="39" relative="1" as="geometry">
            <mxPoint x="5" y="-19.5" as="offset" />
          </mxGeometry>
        </mxCell>
        <mxCell id="xwxbCeUritOEieoB_8Dk-433" value="Architecture: TerramEarth Case Study" style="fillColor=#4DA1F5;strokeColor=none;shadow=1;gradientColor=none;fontSize=14;align=left;spacingLeft=50;fontColor=#ffffff;" parent="1" vertex="1">
          <mxGeometry x="45" y="-70" width="1000" height="40" as="geometry" />
        </mxCell>
        <mxCell id="xwxbCeUritOEieoB_8Dk-442" style="edgeStyle=orthogonalEdgeStyle;rounded=0;orthogonalLoop=1;jettySize=auto;html=1;entryX=0;entryY=0.5;entryDx=0;entryDy=0;startArrow=none;startFill=0;endArrow=block;endFill=1;strokeColor=#007FFF;strokeWidth=2;fontColor=#000000;" parent="1" source="xwxbCeUritOEieoB_8Dk-436" target="391" edge="1">
          <mxGeometry relative="1" as="geometry" />
        </mxCell>
      </root>
    </mxGraphModel>
  </diagram>
</mxfile>
